<svg xmlns="http://www.w3.org/2000/svg" viewBox="0 0 148.04 555.24"><defs><style>.cls-1{fill:none;}.cls-2{fill:#ea3d25;}</style></defs><title>Asset 1orange-blob</title><g id="Layer_2" data-name="Layer 2"><g id="Layer_2-2" data-name="Layer 2"><path class="cls-1" d="M88.4,116.57c-10,19.28-5.21,42.56-.1,67.2,3.47,16.71,7.06,34,5.69,50.17-1.36,16.54-9.35,34.31-17.08,51.49-10.52,23.4-21.4,47.6-15,68.1,11.34,36,39.21,72.07,65,102.62,5.71,6.8,13,12.06,21.15,16.37V463.2a65.89,65.89,0,0,1-18.7-15.36c-23.09-28.2-51-65.19-61.73-101.27-6.18-20.91,4.77-44.74,15.36-67.8,7.49-16.31,15.24-33.18,16.74-48.69,1.51-15.2-1.49-31.65-4.39-47.55-4.45-24.37-8.65-47.39,1.81-66.74,9.9-18.44,30.29-28,50.91-36.61V74.75l-3.27,1.44C122.2,86.13,98.85,96.4,88.4,116.57Z"/><path class="cls-1" d="M120.66,117.51c-10.15,17.37-7.44,38.73-4.57,61.35,1.87,14.73,3.8,29.95,1.92,44.15-1.89,14.6-9.39,30.21-16.64,45.3-10.2,21.21-20.74,43.14-15.76,62.37,9.2,35,35.21,71.65,54,96.16a50.78,50.78,0,0,0,8.45,8.64V424.86a48.12,48.12,0,0,1-5.85-6.58c-17.68-24-42.18-59.88-50.66-94.74-4.67-19.53,5.92-41.05,16.18-61.86,7-14.24,14.28-29,16.29-42.61,2-13.28.62-27.68-.71-41.61-2.14-22.3-4.16-43.38,6.38-60.7,4.47-7.39,10.89-12.88,18.37-17.28v-4.7C136.62,100.22,126.67,107.13,120.66,117.51Z"/><path class="cls-1" d="M99.16,116.88c-10.08,18.64-6,41.28-1.58,65.24,2.93,16.06,6,32.67,4.42,48.18-1.54,15.89-9.37,32.95-16.94,49.43-10.41,22.67-21.18,46.11-15.25,66.18,10.66,35.69,38.36,72.44,61.31,100.47A62.77,62.77,0,0,0,148,460.53v-9.64A59.56,59.56,0,0,1,133.62,438c-21.77-27.47-48.05-63.55-58-99.09-5.68-20.44,5.15-43.5,15.63-65.81,7.33-15.63,14.92-31.79,16.6-46.67,1.68-14.57-.78-30.35-3.15-45.6-3.68-23.67-7.16-46,3.32-64.69,8.23-14.77,23.51-23.3,40.06-30.28V81.67C128.09,90,108.55,99.39,99.16,116.88Z"/><path class="cls-1" d="M109.91,117.19c-10.11,18-6.68,40-3.06,63.28,2.39,15.4,4.87,31.32,3.15,46.19-1.71,15.24-9.38,31.57-16.8,47.36-10.29,21.94-21,44.62-15.48,64.28,9.88,35.15,36,71,57.64,98.31A56.64,56.64,0,0,0,148,448.22v-10a53.62,53.62,0,0,1-10.13-10.06C119,403.48,92.85,366.61,83.56,331.22c-5.18-20,5.53-42.28,15.89-63.83,7.19-14.94,14.61-30.39,16.46-44.65,1.84-13.93-.07-29-1.93-43.61-2.92-23-5.67-44.7,4.84-62.69,6.45-11.12,17.1-18.36,29.22-24V88.24C132.18,95,117.67,103.27,109.91,117.19Z"/><path class="cls-1" d="M66.9,116c-10,20.57-3.78,45.16,2.81,71.2,4.56,18,9.28,36.63,8.27,54.08-1,17.82-9.3,37-17.33,55.58-10.75,24.87-21.88,50.58-14.53,71.94,12.78,37,42.3,73.25,72.3,106.93,7.86,8.87,18.15,15.2,29.62,20.17V487c-10.54-4.88-20-11-27.26-19.49C93.47,436.06,63.89,398.9,51.65,361.92c-7.17-21.84,4-47.24,14.86-71.8,7.79-17.68,15.85-36,17-52.71C84.67,221,80.57,203.2,76.6,186c-6-25.79-11.59-50.14-1.16-70.86C86.35,93.35,110.7,82,134.26,71c4.59-2.14,9.22-4.3,13.78-6.55V58.93c-7.19,4-14.75,7.75-22.19,11.4C102.08,82,77.51,94.05,66.9,116Z"/><path class="cls-1" d="M56.16,115.63c-10,21.22-3.08,46.48,4.25,73.23,5.11,18.65,10.39,37.93,9.57,56-.82,18.45-9.27,38.36-17.45,57.61-11.38,26.79-22.12,52.08-14.31,73.87,13.51,37.54,44.49,74.62,76,109.09,9,9.84,20.77,16.6,33.86,21.83v-8.63c-12.18-5.16-23.15-11.79-31.54-21.26C86.32,443.51,56.62,407,43.68,369.59c-7.66-22.3,3.66-48.48,14.61-73.8,7.94-18.36,16.15-37.34,17.12-54.7,1-17.07-3.68-35.5-8.19-53.32-6.71-26.5-13-51.53-2.63-72.94,11-22.7,36-34.95,60.12-46.8C132.56,64.18,140.53,60.26,148,56V49.59c-9.82,6.56-20.87,12.25-31.67,17.8C92,79.92,66.84,92.87,56.16,115.63Z"/><path class="cls-1" d="M140.88,277.36A158.23,158.23,0,0,0,148,310V276.51c-.28-2.24-.5-4.46-.65-6.68a41.2,41.2,0,0,1,.65-10.21V247.41C143.19,257.37,139.94,267.41,140.88,277.36Z"/><path class="cls-1" d="M133,285c2.09,16.54,8,34,15,50V314.64c-4.2-12.17-7.44-24.86-8.64-37.13-1.07-11.21,3-22.4,8.64-33.43v-5.8C139.26,253.76,131.1,269.63,133,285Z"/><path class="cls-1" d="M125.1,292.6c2.8,18.33,10.5,39.49,22.94,63.09V338.84c-7.71-17-14.37-35.83-16.62-53.67-2-16.66,7.21-33.63,16.62-50.09v-6c-1.86,3.52-3.8,7-5.72,10.51C132.59,257.21,122.53,275.39,125.1,292.6Z"/><path class="cls-1" d="M45.4,115.32c-10,21.88-2.37,47.81,5.69,75.25,5.66,19.29,11.52,39.22,10.88,58-.63,19.1-9.24,39.73-17.57,59.67C32.9,335.73,22,361.75,30.31,384,45.24,424,79.25,462.36,110,495.22,120,506,133.36,513.14,148,518.61v-8.46c-13.8-5.41-26.31-12.46-35.82-22.9-31.66-34.68-62.84-72-76.51-110-8.17-22.78,3.29-49.74,14.36-75.81,8.1-19,16.45-38.73,17.25-56.7.8-17.67-4.43-36.75-9.48-55.2-7.46-27.23-14.51-52.95-4.09-75.06C64.81,90.92,90.41,77.75,115.16,65,126.43,59.23,138,53.28,148,46.37v-7.5c-11.86,9.84-26.72,17.82-41.14,25.57C82,77.83,56.16,91.69,45.4,115.32Z"/><path class="cls-1" d="M131.41,117.82c-10.2,16.74-8.2,37.48-6.1,59.45,1.35,14,2.75,28.57.7,42.1-2.06,13.95-9.39,28.82-16.48,43.21-10.09,20.49-20.53,41.67-16,60.48,8.39,34.5,32.73,70.18,50.31,94A44.29,44.29,0,0,0,148,422V410.51c-.54-.68-1.07-1.37-1.57-2.08-25.87-36.54-41.23-66.82-47-92.56C95.34,296.78,105.83,276,116,256c6.85-13.56,13.94-27.58,16.13-40.58,2.15-12.63,1.29-26.31.45-39.56-1.35-21.64-2.64-42.1,8-58.76a41.55,41.55,0,0,1,7.52-8.83v-6.39C141.25,106,135.46,111.11,131.41,117.82Z"/><path class="cls-1" d="M142.16,118.12c-10.26,16.14-9,36.28-7.66,57.6.84,13.35,1.71,27.16-.48,40-2.23,13.29-9.38,27.45-16.31,41.14-10,19.75-20.33,40.18-16.3,58.59,5.67,25.48,20.92,55.51,46.63,91.83V394.53c-22.38-33.69-35.67-62-40.55-86.34-3.67-18.63,6.72-38.6,16.76-57.92,6.69-12.86,13.61-26.16,15.95-38.53,2.3-12,2-24.94,1.61-37.49-.5-18.51-1-36.12,6.23-51V110.87A40,40,0,0,0,142.16,118.12Z"/><path class="cls-1" d="M143.66,174.2c.35,12.65.7,25.73-1.64,37.88-2.39,12.63-9.37,26.06-16.13,39-9.89,19-20.13,38.72-16.59,56.71,4.73,23.56,17.42,50.88,38.74,83.33V377.51c-17.75-29.31-28.7-55.17-32.58-77-3.15-18.19,7.14-37.39,17.09-56,6.31-11.76,12.81-23.93,15.49-35.33V127.92C142.79,141.6,143.21,157.53,143.66,174.2Z"/><path class="cls-1" d="M117.19,300.21c3.73,21,14.1,45.8,30.85,73.89V359.25c-13.39-24.89-21.66-47.17-24.6-66.4-2.65-17.78,7.55-36.21,17.42-54,2.5-4.53,4.95-9,7.18-13.32v-9.85c-3.26,9.79-8.67,19.9-13.94,29.74C124.29,263.69,114.14,282.62,117.19,300.21Z"/><path class="cls-1" d="M77.65,116.26c-10,19.92-4.49,43.86,1.36,69.19,4,17.37,8.16,35.32,7,52.14-1.19,17.17-9.33,35.66-17.21,53.53-10.64,24.13-21.64,49.09-14.77,70,12.11,36.57,41.49,73.48,68.65,104.77,6.78,7.86,15.54,13.69,25.38,18.36v-9.06c-8.87-4.53-16.78-10.14-23-17.52C99.14,427,71.1,390.64,59.64,354.24c-6.68-21.36,4.39-46,15.09-69.79,7.65-17,15.55-34.58,16.88-50.7C93,217.92,89.39,200.8,86,184.26c-5.2-25.08-10.12-48.76.32-68.79C97.11,94.56,120.85,84.11,143.81,74L148,72.13V67.24c-4.22,2.06-8.5,4.06-12.73,6C112.14,84.07,88.18,95.23,77.65,116.26Z"/><path class="cls-1" d="M88,58.5C61.84,73.65,34.81,89.31,23.9,114.7c-10,23.18-1,50.46,8.54,79.35C39.21,214.58,46.22,235.83,46,255.8c-.26,20.38-9.16,42.42-17.78,63.73C16.41,348.62,5.3,376.1,14.51,399.21c16.4,41.11,52,79.62,87,115.55C113.76,527.37,130.22,535.14,148,541v-8.14c-17-5.82-32.61-13.56-44.38-25.9-32.28-33.81-68-73.31-83.9-114.33-9.15-23.73,2.57-52.25,13.9-79.84,8.37-20.39,17-41.47,17.46-60.68.44-18.89-5.92-39.25-12.07-58.94-8.95-28.7-17.42-55.79-7-79.3C43.27,88.48,70.1,73.49,96.05,59c16.27-9.09,33.11-18.49,45.42-30.24q3.25-3.11,6.57-5.92V14.76a159.06,159.06,0,0,0-13.41,11.68C121.89,38.83,104.65,48.83,88,58.5Z"/><path class="cls-1" d="M78.5,55.52c-26.73,16-54.37,32.6-65.35,58.87-10,23.84-.3,51.8,10,81.41C30.44,217,38,238.85,38,259.46c-.06,21-9.12,43.74-17.88,65.75C8.17,355.07-3.06,383.27,6.61,406.83,25.16,452,68.54,495.63,97.25,524.52c13.41,13.5,31.42,21.53,50.79,27.55v-8c-18.54-6-35.74-14-48.66-27.26-35.22-36.14-71-74.91-87.59-116.51C2.15,376.09,14,346.78,25.46,318.43,34,297.37,42.78,275.59,43,255.77c.25-19.49-6.68-40.49-13.38-60.81-9.7-29.42-18.86-57.21-8.44-81.42C32.5,87.26,60,71.35,86.5,56c16.52-9.58,33.61-19.48,46.08-31.62A161.52,161.52,0,0,1,148,11.05V3.66a160.4,160.4,0,0,0-22.22,18.4C112.93,34.88,95.43,45.37,78.5,55.52Z"/><path class="cls-1" d="M97.44,61.47C71.9,75.75,45.49,90.5,34.65,115c-10,22.53-1.67,49.13,7.11,77.3C48,212.22,54.41,232.81,54,252.16c-.44,19.74-9.2,41.07-17.67,61.7-11.63,28.32-22.62,55.07-13.88,77.74C38.08,432.12,73.63,471.37,105.72,505c11.16,11.71,26.06,19.18,42.32,24.84v-8.28c-15.4-5.63-29.47-13-40.1-24.45C77.06,464,42.84,425.38,27.73,385c-8.65-23.25,2.93-51,14.13-77.82,8.23-19.72,16.75-40.1,17.35-58.7.63-18.28-5.17-38-10.76-57.08-8.21-28-16-54.36-5.55-77.17C54,89.7,80.25,75.63,105.6,62c15-8.08,30.53-16.4,42.44-26.76V26.59c-1.55,1.36-3.08,2.77-4.61,4.22C130.85,42.8,113.86,52.3,97.44,61.47Z"/><path class="cls-2" d="M97.25,524.52C68.54,495.63,25.16,452,6.61,406.83c-9.67-23.56,1.56-51.76,13.46-81.62,8.76-22,17.82-44.75,17.88-65.75C38,238.85,30.44,217,23.11,195.8c-10.26-29.61-19.94-57.57-10-81.41,11-26.27,38.62-42.84,65.35-58.87,16.93-10.15,34.43-20.64,47.32-33.46A160.4,160.4,0,0,1,148,3.66V0a162.76,162.76,0,0,0-24.35,19.92c-12.64,12.55-30,22.95-46.74,33C49.8,69.21,21.73,86,10.36,113.22c-10.42,24.91-.55,53.4,9.89,83.57C27.5,217.71,35,239.36,34.93,259.44c-.06,20.43-9,42.91-17.67,64.65C5.66,353.2-6.32,383.29,3.82,408c17.32,42.18,54.59,81.76,91.28,118.68C109.18,540.82,128,549.08,148,555.24v-3.17C128.67,546.05,110.66,538,97.25,524.52Z"/><path class="cls-2" d="M101.48,514.76c-35-35.93-70.57-74.44-87-115.55-9.21-23.11,1.9-50.59,13.67-79.68C36.8,298.22,45.7,276.18,46,255.8c.26-20-6.75-41.22-13.52-61.75-9.52-28.89-18.52-56.17-8.54-79.35C34.81,89.31,61.84,73.65,88,58.5c16.68-9.67,33.92-19.67,46.66-32.06A159.06,159.06,0,0,1,148,14.76V11.05a161.52,161.52,0,0,0-15.46,13.29C120.11,36.48,103,46.38,86.5,56,60,71.35,32.5,87.26,21.21,113.54c-10.42,24.21-1.26,52,8.44,81.42,6.7,20.32,13.63,41.32,13.38,60.81-.25,19.82-9.05,41.6-17.57,62.66C14,346.78,2.15,376.09,11.79,400.3c16.6,41.6,52.37,80.37,87.59,116.51,12.92,13.26,30.12,21.27,48.66,27.26V541C130.22,535.14,113.76,527.37,101.48,514.76Z"/><path class="cls-2" d="M105.72,505C73.63,471.37,38.08,432.12,22.41,391.6c-8.74-22.67,2.25-49.42,13.88-77.74,8.47-20.63,17.23-42,17.67-61.7.45-19.35-6-39.94-12.2-59.85C33,164.14,24.67,137.54,34.65,115,45.49,90.5,71.9,75.75,97.44,61.47c16.42-9.17,33.41-18.67,46-30.66C145,29.36,146.49,28,148,26.59V22.83q-3.31,2.82-6.57,5.92C129.16,40.5,112.32,49.9,96.05,59c-25.95,14.5-52.78,29.49-64,54.87-10.42,23.51-1.95,50.6,7,79.3,6.15,19.69,12.51,40.05,12.07,58.94-.43,19.21-9.09,40.29-17.46,60.68-11.33,27.59-23,56.11-13.9,79.84,15.86,41,51.62,80.52,83.9,114.33,11.77,12.34,27.4,20.08,44.38,25.9v-3C131.78,524.17,116.88,516.7,105.72,505Z"/><path class="cls-2" d="M110,495.22C79.25,462.36,45.24,424,30.31,384,22,361.75,32.9,335.73,44.4,308.19c8.33-19.94,16.94-40.57,17.57-59.67.64-18.73-5.22-38.66-10.88-58C43,163.13,35.41,137.2,45.4,115.32,56.16,91.69,82,77.83,106.9,64.44c14.42-7.75,29.28-15.73,41.14-25.57V35.26C136.13,45.62,120.63,53.94,105.6,62,80.25,75.63,54,89.7,42.9,114.18c-10.42,22.81-2.66,49.21,5.55,77.17,5.59,19.07,11.39,38.8,10.76,57.08-.6,18.6-9.12,39-17.35,58.7C30.66,334,19.08,361.7,27.73,385,42.84,425.38,77.06,464,107.94,497.1c10.63,11.41,24.7,18.82,40.1,24.45v-2.94C133.36,513.14,120,506,110,495.22Z"/><path class="cls-2" d="M114.18,485.45C82.71,451,51.73,413.9,38.22,376.36c-7.81-21.79,2.93-47.08,14.31-73.87,8.18-19.25,16.63-39.16,17.45-57.61.82-18.09-4.46-37.37-9.57-56-7.33-26.75-14.25-52-4.25-73.23C66.84,92.87,92,79.92,116.37,67.39c10.8-5.55,21.85-11.24,31.67-17.8V46.37C138,53.28,126.43,59.23,115.16,65,90.41,77.75,64.81,90.92,53.75,114.5c-10.42,22.11-3.37,47.83,4.09,75.06,5,18.45,10.28,37.53,9.48,55.2-.8,18-9.15,37.66-17.25,56.7-11.07,26.07-22.53,53-14.36,75.81,13.67,38,44.85,75.3,76.51,110,9.51,10.44,22,17.49,35.82,22.9v-2.87C135,502.05,123.14,495.29,114.18,485.45Z"/><path class="cls-2" d="M118.42,475.68c-30-33.68-59.52-69.95-72.3-106.93-7.35-21.36,3.78-47.07,14.53-71.94,8-18.56,16.33-37.76,17.33-55.58,1-17.45-3.71-36.08-8.27-54.08-6.59-26-12.82-50.63-2.81-71.2,10.61-21.9,35.18-34,58.95-45.62,7.44-3.65,15-7.36,22.19-11.4V56c-7.51,4.29-15.48,8.21-23.33,12.06-24.15,11.85-49.12,24.1-60.12,46.8-10.42,21.41-4.08,46.44,2.63,72.94,4.51,17.82,9.18,36.25,8.19,53.32-1,17.36-9.18,36.34-17.12,54.7-10.95,25.32-22.27,51.5-14.61,73.8C56.62,407,86.32,443.51,116.5,477.39c8.39,9.47,19.36,16.1,31.54,21.26v-2.8C136.57,490.88,126.28,484.55,118.42,475.68Z"/><path class="cls-2" d="M122.66,465.91C95.5,434.62,66.12,397.71,54,361.14c-6.87-20.93,4.13-45.89,14.77-70,7.88-17.87,16-36.36,17.21-53.53,1.18-16.82-3-34.77-7-52.14-5.85-25.33-11.38-49.27-1.36-69.19,10.53-21,34.49-32.19,57.66-43,4.23-2,8.51-4,12.73-6V64.47c-4.56,2.25-9.19,4.41-13.78,6.55C110.7,82,86.35,93.35,75.44,115.15,65,135.87,70.64,160.22,76.6,186c4,17.19,8.07,35,6.91,51.4-1.15,16.75-9.21,35-17,52.71-10.83,24.56-22,50-14.86,71.8,12.24,37,41.82,74.14,69.13,105.61C128.07,476,137.5,482.14,148,487v-2.75C138.2,479.6,129.44,473.77,122.66,465.91Z"/><path class="cls-2" d="M126.89,456.15c-25.77-30.55-53.64-66.63-65-102.62-6.4-20.5,4.48-44.7,15-68.1,7.73-17.18,15.72-35,17.08-51.49,1.37-16.17-2.22-33.46-5.69-50.17-5.11-24.64-9.94-47.92.1-67.2,10.45-20.17,33.8-30.44,56.37-40.38L148,74.75V72.13L143.81,74c-23,10.11-46.7,20.56-57.53,41.47-10.44,20-5.52,43.71-.32,68.79,3.43,16.54,7,33.66,5.65,49.49-1.33,16.12-9.23,33.7-16.88,50.7C64,308.26,53,332.88,59.64,354.24c11.46,36.4,39.5,72.72,65.42,103.45,6.2,7.38,14.11,13,23,17.52v-2.69C139.86,468.21,132.6,463,126.89,456.15Z"/><path class="cls-2" d="M131.12,446.38c-23-28-50.65-64.78-61.31-100.47-5.93-20.07,4.84-43.51,15.25-66.18,7.57-16.48,15.4-33.54,16.94-49.43,1.54-15.51-1.49-32.12-4.42-48.18-4.37-24-8.5-46.6,1.58-65.24C108.55,99.39,128.09,90,148,81.67V79.18c-20.62,8.61-41,18.17-50.91,36.61-10.46,19.35-6.26,42.37-1.81,66.74,2.9,15.9,5.9,32.35,4.39,47.55-1.5,15.51-9.25,32.38-16.74,48.69-10.59,23.06-21.54,46.89-15.36,67.8,10.77,36.08,38.64,73.07,61.73,101.27A65.89,65.89,0,0,0,148,463.2v-2.67A62.77,62.77,0,0,1,131.12,446.38Z"/><path class="cls-2" d="M135.36,436.61C113.71,409.3,87.6,373.45,77.72,338.3,72.25,318.64,82.91,296,93.2,274c7.42-15.79,15.09-32.12,16.8-47.36,1.72-14.87-.76-30.79-3.15-46.19-3.62-23.28-7-45.27,3.06-63.28C117.67,103.27,132.18,95,148,88.24v-2.4c-16.55,7-31.83,15.51-40.06,30.28-10.48,18.66-7,41-3.32,64.69,2.37,15.25,4.83,31,3.15,45.6-1.68,14.88-9.27,31-16.6,46.67-10.48,22.31-21.31,45.37-15.63,65.81,10,35.54,36.27,71.62,58,99.09A59.56,59.56,0,0,0,148,450.89v-2.67A56.64,56.64,0,0,1,135.36,436.61Z"/><path class="cls-2" d="M139.59,426.84c-18.77-24.51-44.78-61.14-54-96.16-5-19.23,5.56-41.16,15.76-62.37,7.25-15.09,14.75-30.7,16.64-45.3,1.88-14.2-.05-29.42-1.92-44.15-2.87-22.62-5.58-44,4.57-61.35,6-10.38,16-17.29,27.38-22.73V92.43c-12.12,5.65-22.77,12.89-29.22,24-10.51,18-7.76,39.7-4.84,62.69,1.86,14.59,3.77,29.68,1.93,43.61-1.85,14.26-9.27,29.71-16.46,44.65-10.36,21.55-21.07,43.85-15.89,63.83,9.29,35.39,35.47,72.26,54.35,96.91A53.62,53.62,0,0,0,148,438.19v-2.71A50.78,50.78,0,0,1,139.59,426.84Z"/><path class="cls-2" d="M143.82,417.07c-17.58-23.83-41.92-59.51-50.31-94-4.51-18.81,5.93-40,16-60.48,7.09-14.39,14.42-29.26,16.48-43.21,2-13.53.65-28.06-.7-42.1-2.1-22-4.1-42.71,6.1-59.45,4.05-6.71,9.84-11.82,16.63-16V99.48c-7.48,4.4-13.9,9.89-18.37,17.28-10.54,17.32-8.52,38.4-6.38,60.7,1.33,13.93,2.72,28.33.71,41.61-2,13.63-9.27,28.37-16.29,42.61C97.45,282.49,86.86,304,91.53,323.54c8.48,34.86,33,70.76,50.66,94.74a48.12,48.12,0,0,0,5.85,6.58V422A44.29,44.29,0,0,1,143.82,417.07Z"/><path class="cls-2" d="M101.41,315.45c-4-18.41,6.3-38.84,16.3-58.59,6.93-13.69,14.08-27.85,16.31-41.14,2.19-12.84,1.32-26.65.48-40-1.34-21.32-2.6-41.46,7.66-57.6a40,40,0,0,1,5.88-7.25v-2.62a41.55,41.55,0,0,0-7.52,8.83c-10.6,16.66-9.31,37.12-8,58.76.84,13.25,1.7,26.93-.45,39.56-2.19,13-9.28,27-16.13,40.58-10.15,20.06-20.64,40.8-16.47,59.89,5.73,25.74,21.09,56,47,92.56.5.71,1,1.4,1.57,2.08v-3.23C122.33,371,107.08,340.93,101.41,315.45Z"/><path class="cls-2" d="M109.3,307.83c-3.54-18,6.7-37.67,16.59-56.71,6.76-13,13.74-26.41,16.13-39,2.34-12.15,2-25.23,1.64-37.88-.45-16.67-.87-32.6,4.38-46.28v-4.68c-7.2,14.89-6.73,32.5-6.23,51,.34,12.55.69,25.53-1.61,37.49-2.34,12.37-9.26,25.67-15.95,38.53-10,19.32-20.43,39.29-16.76,57.92,4.88,24.37,18.17,52.65,40.55,86.34v-3.37C126.72,358.71,114,331.39,109.3,307.83Z"/><path class="cls-2" d="M117.19,300.21c-3-17.59,7.1-36.52,16.91-54.83,5.27-9.84,10.68-19.95,13.94-29.74v-6.43c-2.68,11.4-9.18,23.57-15.49,35.33-10,18.58-20.24,37.78-17.09,56,3.88,21.83,14.83,47.69,32.58,77V374.1C131.29,346,120.92,321.2,117.19,300.21Z"/><path class="cls-2" d="M125.1,292.6c-2.57-17.21,7.49-35.39,17.22-53,1.92-3.48,3.86-7,5.72-10.51v-3.62c-2.23,4.36-4.68,8.79-7.18,13.32-9.87,17.83-20.07,36.26-17.42,54,2.94,19.23,11.21,41.51,24.6,66.4v-3.56C135.6,332.09,127.9,310.93,125.1,292.6Z"/><path class="cls-2" d="M133,285c-1.89-15.35,6.27-31.22,15-46.7v-3.2c-9.41,16.46-18.67,33.43-16.62,50.09,2.25,17.84,8.91,36.7,16.62,53.67V335C141,319,135.08,301.52,133,285Z"/><path class="cls-2" d="M140.88,277.36c-.94-9.95,2.31-20,7.16-30v-3.33c-5.67,11-9.71,22.22-8.64,33.43,1.2,12.27,4.44,25,8.64,37.13V310A158.23,158.23,0,0,1,140.88,277.36Z"/></g></g></svg>