<svg xmlns="http://www.w3.org/2000/svg" viewBox="0 0 135.82 618.19"><defs><style>.cls-1{fill:none;}.cls-2{fill:#ea3d25;}</style></defs><title>Asset 5orange-blob</title><g id="Layer_2" data-name="Layer 2"><g id="Layer_2-2" data-name="Layer 2"><path class="cls-1" d="M44.35,141.34c15.41,43,30.8,94.77,28.25,152.88-.94,20.69,2.86,43.19,6.55,64.94,5.91,34.93,12,71-1.67,100.1C60.85,494.68,30.3,527.69,0,556.6V567c33.39-31.79,69.09-69,87.26-108.87,13.19-28.87,6.53-63.55-.53-100.25-4.37-22.79-8.89-46.35-8.15-68.27,1.7-51.62-6.89-100.86-27-155C38.78,100.5,21.35,75.4,0,50.53V62C18.16,85.28,32.89,109.5,44.35,141.34Z"/><path class="cls-1" d="M16,321c-2,15.21-2,32-1.93,48.17.07,31.15.14,63.34-14,87.82v15.47a172.21,172.21,0,0,0,10.38-16.24C24.15,431.67,23,399.22,22,367.83c-.6-17.32-1.21-35.22.68-51.61,3.57-31.73-8.37-64.2-19.92-95.6-.92-2.49-1.82-5-2.72-7.41v27.07C10.23,267,19.41,294.35,16,321Z"/><path class="cls-1" d="M65.23,125.6c19.23,49.85,27.56,100.59,26.24,159.7-.51,22.36,4.66,46.59,9.67,70,7.77,36.35,15.8,73.94,2.21,104.61C82.24,507.65,37.52,551.44,0,587.23v10.66L5,593c40.43-39.29,86.24-83.84,107.91-134.21,13.08-30.41,4.62-66.47-4.32-104.65-5.73-24.46-11.65-49.74-11.35-73.39.84-67.31-6.64-115.66-25-161.68C55.77,77.77,29,48.91,0,19.74v9.8C26.89,58.08,49.84,85.81,65.23,125.6Z"/><path class="cls-1" d="M54.79,133.46C75.09,188,83.75,237.67,82,289.76c-.74,21.53,3.75,44.9,8.09,67.49,6.84,35.63,13.92,72.47.28,102.34C71.55,501,34.29,539.31,0,571.8v10.48c36.77-35.12,79.72-77.74,100.08-123.8,13.13-29.62,5.57-65-2.43-102.42C92.6,332.43,87.38,308,87.91,285.22c1.3-58.63-7-109-26-158.33C47.25,89,25.51,62.07,0,34.76V45.3C22.39,71.08,41.43,97.71,54.79,133.46Z"/><path class="cls-1" d="M33.9,149.2C51.61,200.7,66,247.5,63.16,298.68c-1.14,19.84,2,41.44,5,62.33,5,34.24,10.11,69.65-3.64,97.91C50.18,488.56,25.73,516.41,0,541.49V552c29.31-28.17,58.48-60.11,74.45-94.13,13.24-28.12,7.49-62.12,1.4-98.12-3.71-21.92-7.55-44.6-6.59-65.65,2.53-57.54-12.76-108.93-28.06-151.6-10.75-29.85-24.44-53-41.2-75v13A288.75,288.75,0,0,1,33.9,149.2Z"/><path class="cls-1" d="M13,164.93c2.72,8.69,5.75,17.67,8.7,26.36,12.71,37.6,25.85,76.49,22.57,116.33-1.53,18.05.31,37.81,2.08,56.92,3.06,32.94,6.23,67-7.69,93.71-9.46,18.26-23.33,36-38.67,52.48v11.09c19.51-20,37.44-41.91,48.82-64.64,13.41-26.63,9.3-60.87,5.34-94-2.41-20.16-4.91-41-3.55-60.25,3.11-45.3-11.44-88.87-25.5-131q-2.33-7-4.62-13.89A331.37,331.37,0,0,0,0,108.51v20.11C4.56,139.69,8.82,151.64,13,164.93Z"/><path class="cls-1" d="M5.33,219.66C17,251.37,29.05,284.15,25.4,316.54c-1.87,16.19-1.25,34-.66,51.19C25.83,399.5,27,432.35,12.8,457.57A179.68,179.68,0,0,1,0,477.16v12.93a202,202,0,0,0,23.19-33.55c13.63-25.22,11.5-58.23,9.44-90.16-1.17-18.29-2.39-37.21-.66-54.59,3.38-35-8.92-70.08-20.83-104C7.1,196.21,3.27,185.28,0,174.31V205C1.71,209.83,3.5,214.7,5.33,219.66Z"/><path class="cls-1" d="M2.56,172.79c3.3,11.15,7.19,22.26,11.31,34,12,34.24,24.43,69.65,21,105.27-1.7,17.13-.49,35.94.68,54.12,2.09,32.33,4.24,65.77-9.78,91.71C19,470.46,10.16,482.7,0,494.58v11.71C14.29,490.66,27.14,474,36,456.86c13.51-25.91,10.39-59.53,7.37-92-1.79-19.24-3.63-39.14-2.08-57.45,3.22-39.22-9.82-77.8-22.43-115.11-2.94-8.71-6-17.71-8.71-26.43C6.85,155.36,3.5,145.72,0,136.7v27.65C.85,167.1,1.7,169.92,2.56,172.79Z"/><path class="cls-1" d="M23.46,157.06c1.51,4.61,3.06,9.23,4.61,13.88,14.16,42.43,28.8,86.3,25.65,132.21-1.34,19,1.14,39.66,3.53,59.67,4,33.58,8.18,68.29-5.64,95.77-12,23.93-31.06,46.86-51.61,67.68V537c24.68-24.28,47.9-51.09,61.64-79.45,13.31-27.37,8.25-62.28,3.34-96-3.05-21.05-6.21-42.82-5.05-63,2.84-50.6-11.49-97.08-29.08-148.24A287,287,0,0,0,0,86.43v15.44C9.19,118.69,16.63,136.43,23.46,157.06Z"/><path class="cls-1" d="M6.52,325.47c-2.14,14.17-2.63,29.81-3.1,44.94-.5,16-1,32.22-3.42,47.49v33.44c11.5-23.3,11.43-53.19,11.36-82.16,0-16.29-.08-33.14,2-48.52C16.41,296.8,9,272.1,0,247.81V274.5C5.6,291.64,9,308.79,6.52,325.47Z"/><path class="cls-1" d="M.86,370.34c.48-15.21,1-30.93,3.13-45.25,2-13.62,0-27.67-4-41.82V392C.4,384.8.63,377.54.86,370.34Z"/><path class="cls-1" d="M75.67,117.73c18.54,46.49,26.08,95.28,25.24,163.1-.3,23.19,5.57,48.26,11.26,72.49,8.69,37.09,17.67,75.44,4.11,107-22,51.06-68,95.86-108.72,135.4L2.12,601c-.7.68-1.41,1.34-2.12,2V613.2c3.75-3.25,7.4-6.6,10.92-10.1l6.5-6.45c40.65-40.28,86.72-85.94,108.29-137.51,13-31.17,3.71-67.95-6.18-106.89-6.42-25.27-13-51.41-13-75.9.16-55.84-1.54-110.48-24-165C64.52,67.27,33.91,37.85,1.5,6.71L0,5.26v9.26C30.27,44.86,58.42,74.48,75.67,117.73Z"/><path class="cls-2" d="M123.21,351.32c-6.36-25.05-12.94-50.95-12.86-75,.17-56.24-1.56-111.29-24.23-166.49C67.73,65.09,36.84,35.4,4.13,4L0,0V5.26L1.5,6.71c32.41,31.14,63,60.56,81.11,104.6,22.41,54.56,24.11,109.2,24,165-.08,24.49,6.55,50.63,13,75.9,9.89,38.94,19.23,75.72,6.18,106.89-21.57,51.57-67.64,97.23-108.29,137.51l-6.5,6.45C7.4,606.6,3.75,610,0,613.2v5c4.7-4,9.25-8.07,13.6-12.39l6.5-6.45c40.9-40.53,87.25-86.48,109.11-138.74C142.75,428.27,132.82,389.15,123.21,351.32Z"/><path class="cls-2" d="M7.56,595.67c40.68-39.54,86.77-84.34,108.72-135.4,13.56-31.51,4.58-69.86-4.11-106.95-5.69-24.23-11.56-49.3-11.26-72.49.84-67.82-6.7-116.61-25.24-163.1C58.42,74.48,30.27,44.86,0,14.52v5.22c29,29.17,55.77,58,72.25,99.36,18.34,46,25.82,94.37,25,161.68-.3,23.65,5.62,48.93,11.35,73.39,8.94,38.18,17.4,74.24,4.32,104.65C91.23,509.19,45.42,553.74,5,593l-5,4.86V603c.71-.67,1.42-1.33,2.12-2Z"/><path class="cls-2" d="M103.35,459.92c13.59-30.67,5.56-68.26-2.21-104.61-5-23.42-10.18-47.65-9.67-70,1.32-59.11-7-109.85-26.24-159.7C49.84,85.81,26.89,58.08,0,29.54v5.22C25.51,62.07,47.25,89,61.9,126.89c19.05,49.38,27.31,99.7,26,158.33-.53,22.78,4.69,47.21,9.74,70.84,8,37.44,15.56,72.8,2.43,102.42C79.72,504.54,36.77,547.16,0,582.28v5C37.52,551.44,82.24,507.65,103.35,459.92Z"/><path class="cls-2" d="M90.41,459.59c13.64-29.87,6.56-66.71-.28-102.34-4.34-22.59-8.83-46-8.09-67.49,1.71-52.09-7-101.75-27.25-156.3C41.43,97.71,22.39,71.08,0,45.3v5.23c21.35,24.87,38.78,50,51.55,84.15,20.14,54.1,28.73,103.34,27,155-.74,21.92,3.78,45.48,8.15,68.27,7.06,36.7,13.72,71.38.53,100.25C69.09,498.05,33.39,535.24,0,567v4.77C34.29,539.31,71.55,501,90.41,459.59Z"/><path class="cls-2" d="M77.48,459.26c13.69-29.05,7.58-65.17,1.67-100.1-3.69-21.75-7.49-44.25-6.55-64.94,2.55-58.11-12.84-109.9-28.25-152.88C32.89,109.5,18.16,85.28,0,62v5.49c16.76,22,30.45,45.11,41.2,75,15.3,42.67,30.59,94.06,28.06,151.6-1,21.05,2.88,43.73,6.59,65.65,6.09,36,11.84,70-1.4,98.12-16,34-45.14,66-74.45,94.13v4.63C30.3,527.69,60.85,494.68,77.48,459.26Z"/><path class="cls-2" d="M64.54,458.92c13.75-28.26,8.61-63.67,3.64-97.91-3-20.89-6.16-42.49-5-62.33C66,247.5,51.61,200.7,33.9,149.2A288.75,288.75,0,0,0,0,80.55v5.88a287,287,0,0,1,30.85,63.83C48.44,201.42,62.77,247.9,59.93,298.5c-1.16,20.16,2,41.93,5.05,63,4.91,33.75,10,68.66-3.34,96C47.9,485.87,24.68,512.68,0,537v4.53C25.73,516.41,50.18,488.56,64.54,458.92Z"/><path class="cls-2" d="M57.25,362.82c-2.39-20-4.87-40.72-3.53-59.67,3.15-45.91-11.49-89.78-25.65-132.21-1.55-4.65-3.1-9.27-4.61-13.88C16.63,136.43,9.19,118.69,0,101.87v6.64A331.37,331.37,0,0,1,20.49,158q2.28,6.9,4.62,13.89c14.06,42.14,28.61,85.71,25.5,131-1.36,19.24,1.14,40.09,3.55,60.25,4,33.12,8.07,67.36-5.34,94C37.44,479.91,19.51,501.8,0,521.82v4.45c20.55-20.82,39.62-43.75,51.61-67.68C65.43,431.11,61.28,396.4,57.25,362.82Z"/><path class="cls-2" d="M46.36,364.54c-1.77-19.11-3.61-38.87-2.08-56.92,3.28-39.84-9.86-78.73-22.57-116.33-2.95-8.69-6-17.67-8.7-26.36-4.19-13.29-8.45-25.24-13-36.31v8.08c3.5,9,6.85,18.66,10.15,29.13,2.72,8.72,5.77,17.72,8.71,26.43,12.61,37.31,25.65,75.89,22.43,115.11-1.55,18.31.29,38.21,2.08,57.45,3,32.51,6.14,66.13-7.37,92C27.14,474,14.29,490.66,0,506.29v4.44c15.34-16.48,29.21-34.22,38.67-52.48C52.59,431.54,49.42,397.48,46.36,364.54Z"/><path class="cls-2" d="M35.52,366.2c-1.17-18.18-2.38-37-.68-54.12,3.46-35.62-9-71-21-105.27-4.12-11.76-8-22.87-11.31-34C1.7,169.92.85,167.1,0,164.35v10c3.27,11,7.1,21.9,11.14,33.45,11.91,34,24.21,69.05,20.83,104-1.73,17.38-.51,36.3.66,54.59,2.06,31.93,4.19,64.94-9.44,90.16A202,202,0,0,1,0,490.09v4.49c10.16-11.88,19-24.12,25.74-36.67C39.76,432,37.61,398.53,35.52,366.2Z"/><path class="cls-2" d="M24.74,367.73c-.59-17.21-1.21-35,.66-51.19,3.65-32.39-8.41-65.17-20.07-96.88C3.5,214.7,1.71,209.83,0,205v8.18c.9,2.45,1.8,4.92,2.72,7.41,11.55,31.4,23.49,63.87,19.92,95.6-1.89,16.39-1.28,34.29-.68,51.61,1.08,31.39,2.19,63.84-11.58,88.39A172.21,172.21,0,0,1,0,472.46v4.7a179.68,179.68,0,0,0,12.8-19.59C27,432.35,25.83,399.5,24.74,367.73Z"/><path class="cls-2" d="M14,369.17C14,353,14,336.21,16,321c3.45-26.65-5.73-54-16-80.72v7.53c9,24.29,16.41,49,13.32,72.85-2,15.38-2,32.23-2,48.52.07,29,.14,58.86-11.36,82.16V457C14.17,432.51,14.1,400.32,14,369.17Z"/><path class="cls-2" d="M6.52,325.47C9,308.79,5.6,291.64,0,274.5v8.77c4,14.15,6,28.2,4,41.82-2.15,14.32-2.65,30-3.13,45.25C.63,377.54.4,384.8,0,392v25.9c2.4-15.27,2.92-31.52,3.42-47.49C3.89,355.28,4.38,339.64,6.52,325.47Z"/></g></g></svg>