<svg xmlns="http://www.w3.org/2000/svg" viewBox="0 0 148.28 523.7"><defs><style>.cls-1{fill:none;}.cls-2{fill:#ea3d25;}</style></defs><title>Asset 2orange-blob</title><g id="Layer_2" data-name="Layer 2"><g id="Layer_2-2" data-name="Layer 2"><path class="cls-1" d="M35.93,184.41l1.8,5.74a326.4,326.4,0,0,0,11.76,30.64c8.87,20.87,17.29,40.54,15,67.69h0c-2.54,29.94-17.11,55-31.21,79.18-4.51,7.76-9.18,15.79-13.39,23.84-3.91,7.56-7.51,15.11-11,22.42C6,420.13,3,426.25,0,432.23V445.1C6.18,434.33,11.53,423,17,411.42c3.12-6.6,6.34-13.43,9.78-20.32,5-9.87,10.84-19.59,16.5-29C57.38,338.75,72,314.59,74,285.91c1.81-26.52-7.59-46.32-17.57-67.23-5-10.59-10.26-21.54-14.33-33.9-1-3.19-2.08-6.32-3.08-9.41C28.88,144.43,20,117.42,0,92.15v10.79C18.11,127.66,26.1,153.1,35.93,184.41Z"/><path class="cls-1" d="M6.15,67.23c24.51,26.84,34.6,55.67,46.29,89.06,1.76,5,3.55,10.17,5.44,15.41,4.93,13.75,12.06,26.21,18.95,38.26,12.76,22.3,24.87,43.36,23.57,71.34-1.32,29.07-17,53.18-32.12,76.49C60.77,369.36,53,381.31,47.2,393.62c-2.26,4.8-4.43,9.54-6.57,14.19C28.59,434,17.86,457.35,0,478.34v7.72c22.88-24.44,35.22-51.75,49.26-82.86q2.24-4.95,4.54-10c6.17-13.51,14.88-26.44,23.29-39,15.52-23.06,31.57-46.91,32.53-75.41.9-27.52-12.2-49-26.09-71.57-7.9-12.84-16.07-26.1-21.5-40.72-2.31-6.17-4.47-12.19-6.59-18.07C43.49,115.23,33.17,86.55,8.56,60.21A111.78,111.78,0,0,1,0,49.7v10C2,62.35,4,64.87,6.15,67.23Z"/><path class="cls-1" d="M30.54,194.69,31,196.3c2.89,9.78,6.1,18.44,9.2,26.81,8,21.66,15,40.34,12.31,67.77-3.14,31.49-18,57.81-32.44,83.26-3.12,5.53-6.26,11.07-9.29,16.68C6.93,398,3.4,405.29,0,412.37v14.52c2.28-4.6,4.5-9.27,6.75-14,3.49-7.33,7.1-14.89,11-22.49,4.23-8.11,8.91-16.16,13.45-23.94,14-24,28.39-48.78,30.88-78.19h0c2.19-26.48-5.69-45.08-14.82-66.57a323.72,323.72,0,0,1-11.84-30.86l-1.8-5.73C24.25,155.19,16.54,130.64,0,107.05v11.62C14.73,141.74,21.9,165.75,30.54,194.69Z"/><path class="cls-1" d="M15,49.44C40.51,76.18,51.25,105.29,63.67,139c2.45,6.64,5,13.44,7.65,20.41,5.75,14.91,14.8,28.71,23.55,42,14.51,22.12,29.5,45,29.5,73.26,0,.6,0,1.2,0,1.79h0c-.68,29.6-17.61,53.94-34,77.48C81.18,367.17,71.7,380.8,65.4,395l-2.12,4.82c-17.4,39.42-31.14,70.55-62,100L0,501v6.92c2.33-2.31,4.68-4.63,7.08-7,32.65-31.79,46.81-64.72,64.74-106.41,6.6-15.35,17-29.82,27-43.82,16.8-23.39,34.16-47.58,34.53-76.66v-.92c0-28.41-16.23-51.82-31.93-74.45-9.77-14.08-19.87-28.63-26.13-44.37-3.11-7.77-6-15.35-8.76-22.75C53.89,98,43,68.9,17.31,42.6A148.6,148.6,0,0,1,0,20.36V30A134.59,134.59,0,0,0,15,49.44Z"/><path class="cls-1" d="M24.3,202.45c2.14,7.69,4.31,14.58,6.42,21.25,7.27,23,13,41.22,9.84,69.57-4,35-19.68,62.78-36.24,92.19L1.7,390.12c-.58,1.05-1.13,2.1-1.7,3.15v13.8c2.78-5.72,5.66-11.54,8.77-17.34,3-5.62,6.18-11.18,9.32-16.72C33,346.6,47.15,321.66,50.24,290.65c2.58-26.86-4.26-45.33-12.18-66.75-3.12-8.4-6.34-17.09-9.25-26.94l-.48-1.61c-8.19-27.45-15-50.42-28.33-72.3v12.72C11.46,156.78,17.55,178.43,24.3,202.45Z"/><path class="cls-1" d="M41.36,174.6q1.52,4.64,3.09,9.4c4,12.22,9.2,23.09,14.21,33.61,10.13,21.22,19.61,41.27,17.81,68.47h0c-2.07,29.27-16.81,53.69-31.06,77.31-5.65,9.35-11.48,19-16.41,28.82-3.43,6.86-6.65,13.67-9.75,20.26C13.12,425.46,7.15,438.09,0,450V460.8c10.78-15.62,18.76-32.72,27.47-51.4,2.69-5.76,5.42-11.63,8.32-17.6,5.49-11.29,12.37-22.28,19-32.91,14.45-23.09,29.41-47,31.05-75.35,1.53-26.83-9.12-47-20.37-68.4-6-11.41-12.22-23.22-16.76-36.45q-2.22-6.42-4.3-12.6c-11.2-33-20.88-61.5-44.44-88V88.2C21.68,114.51,30.83,142.44,41.36,174.6Z"/><path class="cls-1" d="M1.74,76.13c24,27,33.81,55.79,45.13,89.13,1.4,4.12,2.82,8.31,4.3,12.59,4.48,13.05,10.65,24.76,16.6,36.09C79.2,235.65,90,256.17,88.43,283.69c-1.67,29-16.8,53.2-31.43,76.57-6.62,10.57-13.46,21.5-18.89,32.66-2.9,6-5.63,11.83-8.31,17.57C20.47,430.49,12,448.7,0,465.27v8.9c16.45-20.12,26.72-42.48,38.21-67.47,2.14-4.66,4.32-9.4,6.59-14.22C50.67,380,58.48,368,66.05,356.34c15-23,30.41-46.81,31.69-75.16,1.18-27.2-10.66-48-23.22-69.9-7-12.15-14.14-24.71-19.14-38.68-1.89-5.25-3.69-10.39-5.46-15.43C38.33,124.06,28.32,95.47,4.19,69,2.75,67.44,1.36,65.79,0,64.08v10C.57,74.79,1.15,75.47,1.74,76.13Z"/><path class="cls-1" d="M10.58,58.33C35.57,85.09,46,114,58,147.5c2.11,5.88,4.28,11.9,6.57,18,5.35,14.37,13.45,27.52,21.27,40.25,13.06,21.22,26.55,43.14,26.55,70.38,0,.91,0,1.81,0,2.73-1,29.29-17.26,53.47-33,76.85C71,368.17,62.38,381,56.31,394.31q-2.33,5.08-4.54,10C37.22,436.58,24.48,464.77,0,490.06v7c30-28.84,43.54-59.57,60.68-98.39l2.13-4.83c6.41-14.46,16-28.19,25.21-41.48,16.13-23.2,32.82-47.18,33.48-75.93.63-28.24-13.76-50.18-29-73.43-8.83-13.47-18-27.39-23.82-42.59-2.7-7-5.21-13.79-7.67-20.45-12.31-33.41-23-62.26-48.07-88.57A127.86,127.86,0,0,1,0,35.08v9.83A113.78,113.78,0,0,0,10.58,58.33Z"/><path class="cls-1" d="M4.14,220.9c7.12,32.56,5.71,48.46.51,79.56h0C3.32,308.21,1.83,316.1,0,324.05v27.76a232.84,232.84,0,0,0,14.6-54.05c4.89-33,2.16-49.67-5.71-82.53C6,203.2,3.14,192.64,0,183v20.66C1.44,209.13,2.8,214.87,4.14,220.9Z"/><path class="cls-1" d="M0,259.76v55.12c1-4.8,1.87-9.71,2.73-14.74h0c5.16-30.86,6.56-46.62-.5-78.82C1.51,218,.76,214.76,0,211.61V246A105.08,105.08,0,0,1,0,259.76Z"/><path class="cls-1" d="M17.58,208.6c1.06,4.1,2.1,8,3.08,11.66,7.17,26.83,11.94,44.54,7.92,75.41C24.66,325.31,14.41,350.1,0,376.37v12.26l2.39-4.25c16.45-29.22,32-56.81,36-91.36,3.08-27.86-2.55-45.87-9.75-68.65-2.11-6.69-4.29-13.6-6.44-21.33C15.85,180.58,10.12,160.2,0,140.51v14.23C7.38,171.17,12.31,188.53,17.58,208.6Z"/><path class="cls-1" d="M19.41,40.55c26.07,26.74,37.11,56.05,49.9,90,2.78,7.39,5.63,15,8.72,22.7,6.16,15.43,16.15,29.85,25.83,43.79,16.13,23.26,32.75,47.48,32.45,77.08-.38,30-18,54.57-35.07,78.33-10,13.87-20.25,28.21-26.73,43.26C57.17,436,42.2,470.86,9.13,503.06q-4.65,4.54-9.13,9v7.26c4.81-5,9.75-10.09,14.84-15.15,32.47-32.26,47.2-64.08,66-108.95,6.77-16.19,18-31.34,28.81-46,17.47-23.63,35.54-48.07,35.63-77.54v-.22c0-29.35-17.74-53.66-34.89-77.18C99.68,179.64,88.62,164.49,82,148.24c-3.5-8.49-6.69-16.8-9.78-24.84-13-33.94-24.3-63.25-50.5-89.61-8-8-15-17.82-21.68-28.15v9.29C6,24.36,12.3,33.25,19.41,40.55Z"/><path class="cls-1" d="M10.87,214.75c7.93,33.14,10.67,50,5.75,83.31h0A233.34,233.34,0,0,1,0,357.07v14.85c13.32-24.79,22.77-48.49,26.49-76.52,3.91-30.43-.77-48-7.87-74.59-1-3.71-2-7.58-3.09-11.67C10.76,191,6.28,175.08,0,160.08V176.5C4.32,188.67,7.58,201.23,10.87,214.75Z"/><path class="cls-2" d="M112.81,192.52C102.23,178,91.28,163,84.75,147.1c-3.48-8.46-6.66-16.76-9.74-24.79C61.84,88.05,50.47,58.47,23.83,31.65,15,22.81,7.3,11.65,0,0V5.64C6.65,16,13.72,25.77,21.68,33.79c26.2,26.36,37.46,55.67,50.5,89.61,3.09,8,6.28,16.35,9.78,24.84,6.66,16.25,17.72,31.4,28.41,46.06,17.15,23.52,34.89,47.83,34.89,77.18v.22c-.09,29.47-18.16,53.91-35.63,77.54-10.84,14.66-22,29.81-28.81,46-18.78,44.87-33.51,76.69-66,109-5.09,5.06-10,10.16-14.84,15.15v4.36c5.48-5.7,11.13-11.56,17-17.37C49.84,473.68,64.7,441.61,83.61,396.4c6.63-15.84,17.72-30.85,28.45-45.36,17.76-24,36.12-48.87,36.22-79.33v-.23C148.28,241.14,130.25,216.43,112.81,192.52Z"/><path class="cls-2" d="M74.51,395.7c6.48-15.05,16.77-29.39,26.73-43.26,17.05-23.76,34.69-48.33,35.07-78.33.3-29.6-16.32-53.82-32.45-77.08C94.18,183.09,84.19,168.67,78,153.24c-3.09-7.75-5.94-15.31-8.72-22.7-12.79-33.94-23.83-63.25-49.9-90C12.3,33.25,6,24.36,0,14.93v5.43A148.6,148.6,0,0,0,17.31,42.6C43,68.9,53.89,98,66.56,131.58c2.79,7.4,5.65,15,8.76,22.75,6.26,15.74,16.36,30.29,26.13,44.37,15.7,22.63,31.93,46,31.93,74.45v.92c-.37,29.08-17.73,53.27-34.53,76.66-10,14-20.43,28.47-27,43.82C53.89,436.24,39.73,469.17,7.08,501c-2.4,2.34-4.75,4.66-7.08,7v4.15q4.49-4.49,9.13-9C42.2,470.86,57.17,436,74.51,395.7Z"/><path class="cls-2" d="M63.28,399.82,65.4,395c6.3-14.2,15.78-27.83,24.95-41,16.38-23.54,33.31-47.88,34-77.48h0c0-.59,0-1.19,0-1.79,0-28.29-15-51.14-29.5-73.26-8.75-13.34-17.8-27.14-23.55-42-2.7-7-5.2-13.77-7.65-20.41C51.25,105.29,40.51,76.18,15,49.44A134.59,134.59,0,0,1,0,30v5.13A127.86,127.86,0,0,0,12.93,51.4C38.05,77.71,48.69,106.56,61,140c2.46,6.66,5,13.47,7.67,20.45,5.86,15.2,15,29.12,23.82,42.59,15.25,23.25,29.64,45.19,29,73.43-.66,28.75-17.35,52.73-33.48,75.93-9.25,13.29-18.8,27-25.21,41.48l-2.13,4.83C43.54,437.5,30,468.23,0,497.07V501l1.28-1.22C32.14,470.37,45.88,439.24,63.28,399.82Z"/><path class="cls-2" d="M56.31,394.31C62.38,381,71,368.17,79.37,355.75c15.74-23.38,32-47.56,33-76.85,0-.92,0-1.82,0-2.73,0-27.24-13.49-49.16-26.55-70.38C78.05,193.06,70,179.91,64.6,165.54c-2.29-6.14-4.46-12.16-6.57-18C46,114,35.57,85.09,10.58,58.33A113.78,113.78,0,0,1,0,44.91V49.7A111.78,111.78,0,0,0,8.56,60.21c24.61,26.34,34.93,55,46.88,88.23,2.12,5.88,4.28,11.9,6.59,18.07,5.43,14.62,13.6,27.88,21.5,40.72,13.89,22.57,27,44.05,26.09,71.57-1,28.5-17,52.35-32.53,75.41-8.41,12.52-17.12,25.45-23.29,39q-2.31,5.08-4.54,10c-14,31.11-26.38,58.42-49.26,82.86v4c24.48-25.29,37.22-53.48,51.77-85.72Q54,399.39,56.31,394.31Z"/><path class="cls-2" d="M47.2,393.62c5.8-12.31,13.57-24.26,21.08-35.83,15.14-23.31,30.8-47.42,32.12-76.49,1.3-28-10.81-49-23.57-71.34-6.89-12.05-14-24.51-18.95-38.26-1.89-5.24-3.68-10.38-5.44-15.41C40.75,122.9,30.66,94.07,6.15,67.23,4,64.87,2,62.35,0,59.7v4.38C1.36,65.79,2.75,67.44,4.19,69c24.13,26.45,34.14,55,45.73,88.15,1.77,5,3.57,10.18,5.46,15.43,5,14,12.19,26.53,19.14,38.68,12.56,21.95,24.4,42.7,23.22,69.9C96.46,309.53,81,333.33,66.05,356.34,58.48,368,50.67,380,44.8,392.48c-2.27,4.82-4.45,9.56-6.59,14.22-11.49,25-21.76,47.35-38.21,67.47v4.17c17.86-21,28.59-44.32,40.63-70.53C42.77,403.16,44.94,398.42,47.2,393.62Z"/><path class="cls-2" d="M38.11,392.92c5.43-11.16,12.27-22.09,18.89-32.66,14.63-23.37,29.76-47.53,31.43-76.57,1.61-27.52-9.23-48-20.66-69.75-5.95-11.33-12.12-23-16.6-36.09-1.48-4.28-2.9-8.47-4.3-12.59C35.55,131.92,25.78,103.11,1.74,76.13c-.59-.66-1.17-1.34-1.74-2V78c23.56,26.55,33.24,55.05,44.44,88.05q2.09,6.18,4.3,12.6c4.54,13.23,10.75,25,16.76,36.45,11.25,21.39,21.9,41.57,20.37,68.4-1.64,28.38-16.6,52.26-31.05,75.35-6.66,10.63-13.54,21.62-19,32.91-2.9,6-5.63,11.84-8.32,17.6C18.76,428.08,10.78,445.18,0,460.8v4.47c12-16.57,20.47-34.78,29.8-54.78C32.48,404.75,35.21,398.89,38.11,392.92Z"/><path class="cls-2" d="M29,392.22c4.93-9.79,10.76-19.47,16.41-28.82,14.25-23.62,29-48,31.06-77.31h0c1.8-27.2-7.68-47.25-17.81-68.47-5-10.52-10.19-21.39-14.21-33.61q-1.58-4.77-3.09-9.4C30.83,142.44,21.68,114.51,0,88.2v4c20,25.27,28.88,52.28,39,83.22,1,3.09,2,6.22,3.08,9.41,4.07,12.36,9.29,23.31,14.33,33.9,10,20.91,19.38,40.71,17.57,67.23-2,28.68-16.61,52.84-30.71,76.21-5.66,9.39-11.52,19.11-16.5,29C23.34,398,20.12,404.82,17,411.42,11.53,423,6.18,434.33,0,445.1V450c7.15-11.93,13.12-24.56,19.25-37.54C22.35,405.89,25.57,399.08,29,392.22Z"/><path class="cls-2" d="M19.9,391.51c4.21-8.05,8.88-16.08,13.39-23.84C47.39,343.46,62,318.43,64.5,288.49h0c2.28-27.15-6.14-46.82-15-67.69a326.4,326.4,0,0,1-11.76-30.64l-1.8-5.74C26.1,153.1,18.11,127.66,0,102.94v4.11c16.54,23.59,24.25,48.14,33.65,78.08l1.8,5.73a323.72,323.72,0,0,0,11.84,30.86c9.13,21.49,17,40.09,14.82,66.57h0c-2.49,29.41-16.92,54.21-30.88,78.19-4.54,7.78-9.22,15.83-13.45,23.94-3.93,7.6-7.54,15.16-11,22.49-2.25,4.72-4.47,9.39-6.75,14v5.34c3-6,6-12.1,8.92-18.3C12.39,406.62,16,399.07,19.9,391.51Z"/><path class="cls-2" d="M20.09,374.14c14.41-25.45,29.3-51.77,32.44-83.26,2.64-27.43-4.29-46.11-12.31-67.77-3.1-8.37-6.31-17-9.2-26.81l-.48-1.61c-8.64-28.94-15.81-52.95-30.54-76v4.38c13.28,21.88,20.14,44.85,28.33,72.3l.48,1.61c2.91,9.85,6.13,18.54,9.25,26.94,7.92,21.42,14.76,39.89,12.18,66.75-3.09,31-17.21,56-32.15,82.36-3.14,5.54-6.28,11.1-9.32,16.72-3.11,5.8-6,11.62-8.77,17.34v5.3c3.4-7.08,6.93-14.34,10.8-21.55C13.83,385.21,17,379.67,20.09,374.14Z"/><path class="cls-2" d="M4.32,385.46c16.56-29.41,32.2-57.2,36.24-92.19,3.2-28.35-2.57-46.53-9.84-69.57-2.11-6.67-4.28-13.56-6.42-21.25-6.75-24-12.84-45.67-24.3-66.68v4.74C10.12,160.2,15.85,180.58,22.17,203c2.15,7.73,4.33,14.64,6.44,21.33,7.2,22.78,12.83,40.79,9.75,68.65-4,34.55-19.52,62.14-36,91.36L0,388.63v4.64c.57-1,1.12-2.1,1.7-3.15Z"/><path class="cls-2" d="M20.66,220.26c-1-3.7-2-7.56-3.08-11.66C12.31,188.53,7.38,171.17,0,154.74v5.34c6.28,15,10.76,30.91,15.53,49.06,1.06,4.09,2.1,8,3.09,11.67C25.72,247.4,30.4,265,26.49,295.4c-3.72,28-13.17,51.73-26.49,76.52v4.45c14.41-26.27,24.66-51.06,28.58-80.7C32.6,264.8,27.83,247.09,20.66,220.26Z"/><path class="cls-2" d="M16.62,298.06c4.92-33.35,2.18-50.17-5.75-83.31C7.58,201.23,4.32,188.67,0,176.5V183c3.14,9.67,6,20.23,8.89,32.26,7.87,32.86,10.6,49.53,5.71,82.53A232.84,232.84,0,0,1,0,351.81v5.26a233.34,233.34,0,0,0,16.61-59Z"/><path class="cls-2" d="M4.65,300.46c5.2-31.1,6.61-47-.51-79.56-1.34-6-2.7-11.77-4.14-17.27v8c.76,3.15,1.51,6.38,2.24,9.71,7.06,32.2,5.66,48,.5,78.82h0c-.86,5-1.76,9.94-2.73,14.74v9.17c1.83-7.95,3.32-15.84,4.65-23.59Z"/></g></g></svg>