<svg xmlns="http://www.w3.org/2000/svg" viewBox="0 0 140.07 639.55"><defs><style>.cls-1{fill:none;}.cls-2{fill:#ea3d25;}</style></defs><title>Asset 6orange-blob</title><g id="Layer_2" data-name="Layer 2"><g id="Layer_2-2" data-name="Layer 2"><path class="cls-1" d="M84.05,107.42c-12.58,25.84-4.76,56.74,3.53,89.45,5.73,22.61,11.65,46,10.38,67.94-1.25,22.39-11.68,46.51-21.77,69.82C62.68,365.87,48.71,398.18,57.93,425c14.83,42.87,47.56,85,82.14,124.49v-14c-30.74-36.43-61.53-77.84-75.18-119.07-9-27.43,5.06-59.34,18.67-90.2,9.79-22.21,19.9-45.17,21.35-66.21,1.46-20.66-3.69-43-8.68-64.57-7.49-32.4-14.56-63-1.46-89C104,87.94,121,75.44,140.07,65V59.14C116.51,71.38,94.69,85.46,84.05,107.42Z"/><path class="cls-1" d="M111.06,108.21c-12.62,24.21-6.55,53.45-.13,84.41,4.36,21,8.87,42.71,7.15,63-1.71,20.78-11.75,43.1-21.46,64.69-13.21,29.39-26.88,59.8-18.84,85.54C89.21,442.16,114,478.5,140.07,511.26V496c-22.73-30.15-45-64.81-55.14-98.82-7.76-26.26,6-56.21,19.3-85.17,9.41-20.49,19.14-41.69,21-61.17,1.9-19.1-1.87-39.76-5.51-59.73-5.59-30.62-10.87-59.54,2.28-83.85a69.73,69.73,0,0,1,18-21.21V78.46C127.85,86.33,117.5,95.77,111.06,108.21Z"/><path class="cls-1" d="M124.57,108.59c-12.66,23.42-7.48,51.86-2,82,3.68,20.17,7.49,41,5.55,60.53-1.94,20-11.77,41.39-21.28,62.09-13.08,28.48-26.61,57.93-19.15,83.14,9.69,32.47,30.61,65.63,52.36,94.82V475c-19-27.13-36.68-57.45-45.12-87.46-7.13-25.69,6.47-54.66,19.63-82.68,9.21-19.63,18.75-39.93,20.85-58.63,2.11-18.31-1-38.13-3.94-57.29-4.63-29.73-9-57.82,4.16-81.27a58.91,58.91,0,0,1,4.42-6.78V89.79A65.62,65.62,0,0,0,124.57,108.59Z"/><path class="cls-1" d="M70.55,107c-12.56,26.66-3.87,58.39,5.34,92,6.42,23.43,13,47.65,12,70.38-1,23.19-11.65,48.2-21.92,72.38-14.3,33.65-27.79,65.42-18,92.8,16.49,45.81,53.7,91.08,92.06,133.33V554.39c-35.69-40.55-69.84-83.94-85.19-128.33-9.63-28,4.59-60.9,18.35-92.71,10-23.06,20.29-46.91,21.51-68.72,1.24-21.44-4.62-44.59-10.29-67C76,164.36,68.05,132.91,81.15,106,92.44,82.7,115.46,68.16,140.07,55.5V49.58C111.47,64.39,83.07,80.33,70.55,107Z"/><path class="cls-1" d="M43.53,106.24C31,134.54,41.43,168,52.47,203.35c7.81,25,15.88,50.88,15.32,75.19-.55,24.79-11.56,51.59-22.2,77.51C31,391.62,17.17,425.23,28.15,453.71,47.84,504.62,92.5,553.93,132.81,596.16a91.53,91.53,0,0,0,7.26,6.81V590.71q-2.31-2.15-4.47-4.46c-38.8-41.53-81.78-90.1-100.76-140.89C24,416.14,38.52,381.3,52.59,347.59c10.34-24.77,21-50.38,21.8-73.74.79-23-6.5-47.74-13.53-71.71-10.31-35.12-20.06-68.29-7-96.94,14-30.75,46.93-48.43,78.77-65.53,2.46-1.33,4.94-2.65,7.41-4V29c-5.85,3.41-11.79,6.73-17.66,10C90.32,56.92,57.15,75.45,43.53,106.24Z"/><path class="cls-1" d="M57,106.63c-12.55,27.48-3,60.06,7.14,94.54C71.3,225.39,78.65,250.44,77.85,274c-.79,24-11.61,49.91-22.07,75-14.45,34.61-28.1,67.29-17.7,95.22,18.76,50.21,61.48,98.46,100.05,139.75.63.68,1.28,1.35,1.94,2v-13c-39.46-43.28-78.16-89.82-95.21-137.17-10.26-28.61,4.13-62.48,18-95.23,10.16-23.92,20.66-48.65,21.66-71.23,1-22.2-5.56-46.17-11.91-69.34-9.37-34.21-18.23-66.53-5.14-94.3,13.22-28.16,42.93-44.5,72.55-59.78V39.61l-5.77,3.11C103,59.54,70.55,76.94,57,106.63Z"/><path class="cls-1" d="M134.23,188.48c3,19.34,6.12,39.35,4,58-2.15,19.15-11.78,39.67-21.1,59.5-12.94,27.56-26.32,56.06-19.46,80.75,8,28.45,24.46,57.27,42.44,83.34V452.63c-14.85-23.39-28.43-49.38-35.1-74.77-6.51-25.11,7-53.11,20-80.19,5.48-11.4,11.06-23,15.13-34.42V156a136.73,136.73,0,0,1,0-14.74V105.71c-.7,1.06-1.37,2.15-2,3.27C125.38,131.61,129.68,159.23,134.23,188.48Z"/><path class="cls-1" d="M137.31,348.47q1.14,5.64,2.76,11.52v-42.6C136.78,328,135.34,338.44,137.31,348.47Z"/><path class="cls-1" d="M127.39,358.05a203.06,203.06,0,0,0,12.68,37.44V368.14a180.69,180.69,0,0,1-5-19.21c-2.47-12.55.14-25.59,5-38.73v-10C130.66,319.94,123.4,339.79,127.39,358.05Z"/><path class="cls-1" d="M107.55,377.18c6.25,23.8,18.69,48.19,32.52,70.45v-19c-10.79-19.32-20.12-40-25.08-60.39-5.88-24.54,7.44-51.57,20.32-77.71,1.59-3.22,3.19-6.47,4.76-9.73v-10c-3.75,9.36-8.27,18.78-12.73,28.05C114.53,325.47,101.29,353,107.55,377.18Z"/><path class="cls-1" d="M117.48,367.61c4.55,18.73,12.85,37.74,22.59,55.7V401.42C133,386.07,128,371.84,125,358.57c-4.46-20.42,4.44-42.36,15.06-64v-8l-2.47,5C124.92,317.37,111.81,344,117.48,367.61Z"/><path class="cls-1" d="M97.56,107.82c-12.59,25-5.65,55.09,1.7,86.92,5,21.81,10.26,44.37,8.76,65.49-1.49,21.58-11.72,44.8-21.61,67.25-13.37,30.32-27.19,61.67-18.55,88,13.13,39.68,42.47,79.69,72.21,115.19V516.07C113,482.32,86.83,444.59,74.92,406.78c-8.39-26.84,5.52-57.76,19-87.68,9.61-21.36,19.54-43.43,21.2-63.69,1.69-19.89-2.78-41.39-7.09-62.18-6.53-31.5-12.71-61.25.4-86.41,7-13.56,18.38-23.62,31.68-31.92V68.6C122,78.6,106.19,90.56,97.56,107.82Z"/><path class="cls-1" d="M30,105.85c-12.54,29.13-1.24,63.4,10.72,99.68,8.51,25.8,17.31,52.49,17,77.59-.32,25.59-11.51,53.28-22.34,80.06C20.62,399.72,6.66,434.24,18.23,463.27c20.6,51.65,65.27,100,109.26,145.16a99.33,99.33,0,0,0,12.58,10.86v-11.7a95.92,95.92,0,0,1-9.84-9C89.67,556.15,44.75,506.52,24.83,455c-11.5-29.81,3.22-65.65,17.46-100.31,10.51-25.61,21.39-52.1,21.94-76.22.54-23.74-7.45-49.32-15.17-74.06-11.25-36-21.88-70.09-8.79-99.61,14.09-31.89,47.79-50.72,80.39-68.93,6.47-3.61,13-7.26,19.41-11v-7.4c-9.56,6.21-19.63,12.06-29.55,17.81C77.68,54.28,43.73,74,30,105.85Z"/><path class="cls-1" d="M16.52,105.46C4,135.41,16.15,170.54,29,207.73c9.21,26.59,18.72,54.09,18.64,80-.07,26.39-11.46,55-22.46,82.61-14.94,37.51-29,72.94-16.9,102.53,23.3,56.72,77.79,111.57,113.86,147.85a106,106,0,0,0,17.9,14.36V623.81A103.28,103.28,0,0,1,124.85,611c-44.25-45.39-89.18-94.09-110-146.36C2.7,434.23,17.59,397.41,32,361.79c10.7-26.46,21.77-53.82,22.07-78.72.32-24.48-8.39-50.87-16.8-76.39-12.18-37-23.69-71.88-10.61-102.28,14.19-33,48.68-53,82-72.34,10.57-6.13,21.32-12.36,31.4-19V4.76C127.2,14.35,112.76,23,98.62,31.5,65,51.64,30.32,72.46,16.52,105.46Z"/><path class="cls-2" d="M122.17,620.69C86.1,584.41,31.61,529.56,8.31,472.84c-12.15-29.59,2-65,16.9-102.53,11-27.65,22.39-56.22,22.46-82.61.08-25.88-9.43-53.38-18.64-80C16.15,170.54,4,135.41,16.52,105.46c13.8-33,48.52-53.82,82.1-74C112.76,23,127.2,14.35,140.07,4.76V0c-13.27,10.17-28.51,19.32-43.4,28.25C62.56,48.7,27.3,69.85,13,104c-13.1,31.29-.7,67.09,12.42,105,9.1,26.29,18.52,53.48,18.44,78.72-.08,25.66-11.32,53.9-22.2,81.21C7.11,405.47-7.94,443.27,4.8,474.28c21.76,53,68.58,102.71,114.67,149.1a111.87,111.87,0,0,0,20.6,16.17v-4.5A106,106,0,0,1,122.17,620.69Z"/><path class="cls-2" d="M127.49,608.43c-44-45.13-88.66-93.51-109.26-145.16-11.57-29,2.39-63.55,17.17-100.09,10.83-26.78,22-54.47,22.34-80.06.32-25.1-8.48-51.79-17-77.59C28.79,169.25,17.49,135,30,105.85,43.73,74,77.68,54.28,110.52,35.25c9.92-5.75,20-11.6,29.55-17.81V13c-10.08,6.66-20.83,12.89-31.4,19-33.35,19.33-67.84,39.32-82,72.34-13.08,30.4-1.57,65.32,10.61,102.28,8.41,25.52,17.12,51.91,16.8,76.39C53.75,308,42.68,335.33,32,361.79,17.59,397.41,2.7,434.23,14.81,464.64c20.86,52.27,65.79,101,110,146.36a103.28,103.28,0,0,0,15.22,12.81v-4.52A99.33,99.33,0,0,1,127.49,608.43Z"/><path class="cls-2" d="M132.81,596.16c-40.31-42.23-85-91.54-104.66-142.45-11-28.48,2.83-62.09,17.44-97.66,10.64-25.92,21.65-52.72,22.2-77.51.56-24.31-7.51-50.18-15.32-75.19C41.43,168,31,134.54,43.53,106.24,57.15,75.45,90.32,56.92,122.41,39c5.87-3.28,11.81-6.6,17.66-10V24.84c-6.41,3.77-12.94,7.42-19.41,11-32.6,18.21-66.3,37-80.39,68.93-13.09,29.52-2.46,63.57,8.79,99.61,7.72,24.74,15.71,50.32,15.17,74.06-.55,24.12-11.43,50.61-21.94,76.22-14.24,34.66-29,70.5-17.46,100.31,19.92,51.52,64.84,101.15,105.4,143.62a95.92,95.92,0,0,0,9.84,9V603A91.53,91.53,0,0,1,132.81,596.16Z"/><path class="cls-2" d="M138.13,583.89c-38.57-41.29-81.29-89.54-100-139.75-10.4-27.93,3.25-60.61,17.7-95.22,10.46-25.05,21.28-51,22.07-75,.8-23.52-6.55-48.57-13.67-72.79C54.05,166.69,44.49,134.11,57,106.63,70.55,76.94,103,59.54,134.3,42.72l5.77-3.11V35.68c-2.47,1.34-4.95,2.66-7.41,4-31.84,17.1-64.77,34.78-78.77,65.53-13.09,28.65-3.34,61.82,7,96.94,7,24,14.32,48.74,13.53,71.71-.76,23.36-11.46,49-21.8,73.74C38.52,381.3,24,416.14,34.84,445.36c19,50.79,62,99.36,100.76,140.89q2.16,2.31,4.47,4.46v-4.82C139.41,585.24,138.76,584.57,138.13,583.89Z"/><path class="cls-2" d="M48,434.57c-9.81-27.38,3.68-59.15,18-92.8,10.27-24.18,20.9-49.19,21.92-72.38,1-22.73-5.6-46.95-12-70.38-9.21-33.6-17.9-65.33-5.34-92s40.92-42.63,69.52-57.44V45.82C110.45,61.1,80.74,77.44,67.52,105.6c-13.09,27.77-4.23,60.09,5.14,94.3C79,223.07,85.58,247,84.57,269.24c-1,22.58-11.5,47.31-21.66,71.23C49,373.22,34.6,407.09,44.86,435.7c17,47.35,55.75,93.89,95.21,137.17v-5C101.71,525.65,64.5,480.38,48,434.57Z"/><path class="cls-2" d="M57.93,425c-9.22-26.83,4.75-59.14,18.26-90.38C86.28,311.32,96.71,287.2,98,264.81c1.27-21.93-4.65-45.33-10.38-67.94-8.29-32.71-16.11-63.61-3.53-89.45,10.64-22,32.46-36,56-48.28V55.5C115.46,68.16,92.44,82.7,81.15,106c-13.1,26.9-5.13,58.35,3.3,91.64,5.67,22.39,11.53,45.54,10.29,67-1.22,21.81-11.53,45.66-21.51,68.72-13.76,31.81-28,64.69-18.35,92.71,15.35,44.39,49.5,87.78,85.19,128.33V549.5C105.49,510,72.76,467.88,57.93,425Z"/><path class="cls-2" d="M67.86,415.45c-8.64-26.3,5.18-57.65,18.55-88C96.3,305,106.53,281.81,108,260.23c1.5-21.12-3.72-43.68-8.76-65.49-7.35-31.83-14.29-61.9-1.7-86.92C106.19,90.56,122,78.6,140.07,68.6V65C121,75.44,104,87.94,94.77,106.42c-13.1,26-6,56.62,1.46,89,5,21.59,10.14,43.91,8.68,64.57-1.45,21-11.56,44-21.35,66.21C70,357.08,55.88,389,64.89,416.42c13.65,41.23,44.44,82.64,75.18,119.07v-4.85C110.33,495.14,81,455.13,67.86,415.45Z"/><path class="cls-2" d="M77.78,405.88c-8-25.74,5.63-56.15,18.84-85.54,9.71-21.59,19.75-43.91,21.46-64.69,1.72-20.32-2.79-42-7.15-63-6.42-31-12.49-60.2.13-84.41,6.44-12.44,16.79-21.88,29-29.75V74.9c-13.3,8.3-24.65,18.36-31.68,31.92-13.11,25.16-6.93,54.91-.4,86.41,4.31,20.79,8.78,42.29,7.09,62.18-1.66,20.26-11.59,42.33-21.2,63.69-13.44,29.92-27.35,60.84-19,87.68,11.91,37.81,38.05,75.54,65.15,109.29v-4.81C114,478.5,89.21,442.16,77.78,405.88Z"/><path class="cls-2" d="M87.71,396.31c-7.46-25.21,6.07-54.66,19.15-83.14,9.51-20.7,19.34-42.13,21.28-62.09,1.94-19.49-1.87-40.36-5.55-60.53-5.5-30.1-10.68-58.54,2-82a65.62,65.62,0,0,1,15.5-18.8V86a69.73,69.73,0,0,0-18,21.21c-13.15,24.31-7.87,53.23-2.28,83.85,3.64,20,7.41,40.63,5.51,59.73-1.89,19.48-11.62,40.68-21,61.17-13.31,29-27.06,58.91-19.3,85.17,10.16,34,32.41,68.67,55.14,98.82v-4.83C118.32,461.94,97.4,428.78,87.71,396.31Z"/><path class="cls-2" d="M97.63,386.75c-6.86-24.69,6.52-53.19,19.46-80.75,9.32-19.83,18.95-40.35,21.1-59.5,2.16-18.67-.95-38.68-4-58-4.55-29.25-8.85-56.87,3.84-79.5.63-1.12,1.3-2.21,2-3.27v-4.86a58.91,58.91,0,0,0-4.42,6.78c-13.17,23.45-8.79,51.54-4.16,81.27,3,19.16,6,39,3.94,57.29-2.1,18.7-11.64,39-20.85,58.63-13.16,28-26.76,57-19.63,82.68,8.44,30,26.12,60.33,45.12,87.46v-4.87C122.09,444,105.63,415.2,97.63,386.75Z"/><path class="cls-2" d="M107.55,377.18c-6.26-24.15,7-51.71,19.79-78.36,4.46-9.27,9-18.69,12.73-28.05v-7.52c-4.07,11.39-9.65,23-15.13,34.42-13,27.08-26.48,55.08-20,80.19,6.67,25.39,20.25,51.38,35.1,74.77v-5C126.24,425.37,113.8,401,107.55,377.18Z"/><path class="cls-2" d="M117.48,367.61c-5.67-23.63,7.44-50.24,20.12-76l2.47-5v-5.85c-1.57,3.26-3.17,6.51-4.76,9.73-12.88,26.14-26.2,53.17-20.32,77.71,5,20.4,14.29,41.07,25.08,60.39v-5.29C130.33,405.35,122,386.34,117.48,367.61Z"/><path class="cls-2" d="M127.39,358.05c-4-18.26,3.27-38.11,12.68-57.87v-5.6c-10.62,21.63-19.52,43.57-15.06,64,3,13.27,8,27.5,15.06,42.85v-5.93A203.06,203.06,0,0,1,127.39,358.05Z"/><path class="cls-2" d="M137.31,348.47c-2-10-.53-20.47,2.76-31.08V310.2c-4.9,13.14-7.51,26.18-5,38.73a180.69,180.69,0,0,0,5,19.21V360Q138.45,354.11,137.31,348.47Z"/></g></g></svg>