<svg xmlns="http://www.w3.org/2000/svg" viewBox="0 0 142.24 755.23"><defs><style>.cls-1{fill:none;}.cls-2{fill:#ea3d25;}</style></defs><title>Asset 8orange-blob</title><g id="Layer_2" data-name="Layer 2"><g id="Layer_2-2" data-name="Layer 2"><path class="cls-1" d="M110.11,222.63c-21,41.83-34.84,78.12-38.49,129.67-3.68,53.21,2.14,104.78,16.75,149.24,5.77,17.47,8.52,35.91,11.17,53.74,4.7,31.64,9.14,61.52,29.34,84.79,4.24,4.91,8.7,10.08,13.36,15.39V643.55c-3.83-4.51-7.47-8.85-10.89-12.92-19.24-22.81-21.8-51.57-24.49-82-1.62-18.26-3.29-37.12-8.85-54.77C84.37,450.21,77.35,408,77.35,370.25c0-7.84.3-15.5.91-22.92,4.16-49.14,20.07-82.86,42.1-125.12,8.3-16,13.78-35.52,19.08-54.39q1.38-4.94,2.8-9.89v-33.2c-5.1,13.31-9,27.61-12.91,41.71C124,185.81,118.5,205.84,110.11,222.63Z"/><path class="cls-1" d="M97.18,221.66C74.82,267.6,65,305.56,62,357,59.33,405,58.85,460.66,75.85,510.13c5.78,16.73,9.4,34.32,12.89,51.33,6.9,33.61,13.41,65.35,35.35,90,5.81,6.54,11.87,13.37,18.15,20.29V660.18c-5.51-6.25-10.77-12.33-15.72-18.07-20.79-24-25.3-54.27-30.07-86.37-2.63-17.7-5.35-36-11-53.23-11.86-36.12-18-76.9-18-119.41,0-10.24.35-20.6,1.06-31C72.19,300,86.1,263.4,107.32,221.23c8.26-16.51,13.72-36.39,19-55.63,4.6-16.74,9.29-33.77,15.91-49.18v-22c-12.48,20-19.27,45.18-25.89,69.78C111,184,105.55,204.4,97.18,221.66Z"/><path class="cls-1" d="M81.26,347.58c-3.53,42.79,3.26,93,19.61,145.37,5.66,17.95,7.35,37,9,55.39,2.65,30,5.16,58.27,23.8,80.36,2.72,3.25,5.6,6.66,8.59,10.2V626.56q-3.06-3.72-6.05-7.41c-17.87-21.81-18.56-49.24-19.29-78.27-.47-18.59-1-37.82-6.29-55.7-12.44-42.1-23.51-83.3-23.51-123.3,0-6.47.29-12.91.91-19.31,4.38-44.05,21-74.48,40.15-109.72l5.25-9.67A156.31,156.31,0,0,0,142.24,203V169c-5.31,18.91-10.82,38.43-19.21,54.63C101.16,265.55,85.37,299,81.26,347.58Z"/><path class="cls-1" d="M84.26,220.69C64,263.79,55,303.34,52.35,361.77l-.5,10.88c-2.28,49.68-4.64,101.06,11.49,146.07,5.63,15.64,9.85,32,13.93,47.82,9.29,36,18.07,70,42.05,96.27l1.39,1.53c6.85,7.53,14,15.43,21.53,23.43V676.54c-7.14-7.84-14-15.57-20.56-23-22.52-25.27-29.12-57.43-36.11-91.48-3.47-16.9-7-34.38-12.78-50.92-12.07-35.13-15.44-73.25-15.44-109.57,0-15.36.6-30.41,1.41-44.75,3-51.95,13-90.25,35.51-136.61,8.24-17,13.69-37.25,19-56.85,7.15-26.59,14.49-53.88,29-74.85V73.48c-21.38,22.18-30.27,55.9-38.88,88.58C98.07,182.17,92.59,203,84.26,220.69Z"/><path class="cls-1" d="M90.37,159.89c-5.28,20.46-10.74,41.62-19,59.85C50,266.49,44.67,309,42.71,366.51c-.36,11.09-1,22.35-1.61,33.25-2.56,45.3-5,88.08,9.72,127.55,5.24,14,9.72,28.64,14.06,42.77,12,39,23.24,75.82,49.66,104.11l2.8,3c7.89,8.47,16.21,17.39,24.9,26.4V692.66c-8.38-8.9-16.4-17.71-24-26.08l-1.39-1.51C92.31,638.18,83.43,603.79,74,567.37c-4.07-15.74-8.27-32-13.84-47.52-10.58-29.49-13.32-61.52-13.32-94,0-17.77.82-35.68,1.63-53.36L49,361.62c2.69-58.91,11.73-98.83,32.24-142.35,8.2-17.47,13.63-38.1,18.89-58.06,9-34.29,18.37-69.71,42.11-92.45V56.57q-4.28,4-8.47,7.87C109.07,87.47,99.57,124.28,90.37,159.89Z"/><path class="cls-1" d="M130.7,234.23c-19,35-35.49,65.16-39.81,108.62-4.35,45.53,8.13,92.89,22.49,141.51,5.45,18.24,5.94,37.67,6.41,56.45.71,28.52,1.39,55.46,18.64,76.52l3.81,4.67V609.23c-.41-.52-.82-1-1.22-1.55-16.62-20.95-15.51-47.23-14.35-75,.79-18.81,1.59-38.23-3.45-56.19-2.06-7.41-4.32-15-6.61-22.76-9.32-31.44-19.72-66.47-19.72-99.83a143.38,143.38,0,0,1,.88-16.11c4.38-38.05,19.58-63.87,37.17-93.76,2.39-4.07,4.84-8.24,7.3-12.5V211A143.25,143.25,0,0,1,136,224.55Z"/><path class="cls-1" d="M142.24,391.13v-29c-3.85-11-6.46-22-6.46-32.58a58.39,58.39,0,0,1,1-10.82,84,84,0,0,1,5.47-17.68V289.59a99.86,99.86,0,0,0-12.82,34.34C125.87,345.17,133.26,368.28,142.24,391.13Z"/><path class="cls-1" d="M100.52,338.12c-4.19,37.4,8,78.55,18.75,114.84,2.3,7.75,4.56,15.38,6.63,22.8,3.26,11.62,4.13,23.74,4.13,35.9,0,7.08-.29,14.16-.58,21.15-1.12,26.71-2.17,51.94,12.79,71.89V590.83c-11.33-19.19-8.75-42.3-6-66.67,2.12-18.87,4.3-38.41-.4-56.32-2.93-11.3-6.69-22.88-10.67-35.14-9.14-28.21-18.55-57.23-18.55-85.19a112.4,112.4,0,0,1,.91-14.46c4.36-32.93,19-56.17,34.72-80.43V237.09q-2.48,4.24-4.9,8.37C119.91,275.08,104.85,300.65,100.52,338.12Z"/><path class="cls-1" d="M137.41,416.8q2.49,6.85,4.83,13.48V397.73c-8.41-20.9-16.17-42.16-16.17-62.42a71.31,71.31,0,0,1,1-11.79c2.57-15,8.13-27.37,15.22-38.64V274.44c-10.52,15.86-19.19,32.62-22.45,54.22C115.64,356.77,126.72,387.28,137.41,416.8Z"/><path class="cls-1" d="M77.39,157.74c-5.27,20.81-10.72,42.34-19,61C37,267.08,34.47,310.5,33.08,371.22c-.35,15.4-1.54,30.93-2.69,45.95-3.23,42.11-6.26,81.9,7.93,118.74,4.48,11.61,8.7,23.65,12.77,35.3,14.35,41,29.18,83.45,58.68,114.35l4.06,4.26c9,9.41,18.45,19.38,28.41,29.39V708.56c-9.61-9.89-18.78-19.73-27.44-29l-2.79-3c-27-28.87-38.9-67.8-50.44-105.46-4.32-14.09-8.78-28.64-14-42.56-9.28-24.94-11.82-51.8-11.82-79,0-16.62.95-33.39,1.88-49.93.61-10.87,1.24-22.12,1.6-33.17,2-58,7.34-100.82,28.94-148.09,8.17-18,13.59-39,18.84-59.28,9.31-36.08,19-73.39,44.39-97.11,3.55-3.32,7.16-6.68,10.82-10V39.61c-7.08,6.54-14,13.08-20.73,19.51C96.26,83.19,86.67,121.09,77.39,157.74Z"/><path class="cls-1" d="M127.7,431.88c4,12.3,7.76,23.91,10.7,35.29a97.54,97.54,0,0,1,2.89,25c0,10.74-1.21,21.63-2.41,32.32-2.46,22-4.81,43,3.36,60.64V565.38c-1.89-9.4-1.41-19.48,0-30V438.13c-2.23-6.66-4.69-13.46-7.23-20.46-9.2-25.37-18.67-51.48-18.67-76.42a87.4,87.4,0,0,1,.93-13c3.55-23.56,13.34-41.38,25-58.42V257.53c-14.7,22.78-28,45.08-32.09,75.86C106.06,365.14,117.06,399.06,127.7,431.88Z"/><path class="cls-1" d="M51.42,153.49C46.18,175,40.76,197.23,32.57,216.84c-19.22,45.9-19,90.31-18.8,141.59q0,10.92,0,22.26c-.06,20.68-2.64,41.3-5.13,61.24-4.93,39.38-9.58,76.56,4.62,111.16l2.21,5.38c22.19,54.09,45.14,110,84.71,149.83l6.45,6.5c11.42,11.53,23.28,23.49,35.58,35.2V739.85c-12-11.62-23.49-23.48-34.6-34.91l-5.29-5.44c-34.11-35-52.68-83.15-70.64-129.72-3.09-8-6.18-16-9.33-23.92-7.75-19.44-10.22-39.55-10.22-60.33,0-17.94,1.85-36.39,3.75-55.32,1.78-17.74,3.62-36.09,3.85-54.3l.11-9.17c.64-54.46,1.18-101.5,22.23-150.4,8.12-18.87,13.51-40.61,18.73-61.64,9.49-38.2,19.3-77.7,45.83-103.54,11.64-11.34,23.5-22.73,35.58-33.75V5c-17,15.33-32.3,30.58-45.27,43.47C70.63,74.65,60.86,114.73,51.42,153.49Z"/><path class="cls-1" d="M64.41,155.59c-5.26,21.17-10.69,43-18.92,62.21-20.76,48.22-21.31,94.92-21.93,149L23.44,376c-.23,18.36-2.07,36.8-3.86,54.61-4,40.38-7.88,78.52,6.22,113.93,3.16,7.9,6.25,15.91,9.35,24C53,614.68,71.41,662.48,105,696.92l5.31,5.45c10.28,10.59,20.93,21.54,32,32.33V724.27c-10.91-10.89-21.27-21.77-31-32l-4-4.27c-30-31.45-45-74.24-59.47-115.63-4.06-11.63-8.26-23.65-12.73-35.2-8.37-21.7-10.88-44.26-10.88-67.64,0-17.12,1.34-34.67,2.72-52.65,1.15-15,2.33-30.46,2.68-45.75,1.41-61.16,4-104.91,25.64-153.83,8.14-18.41,13.55-39.78,18.78-60.46C83.33,119.72,93.05,81.31,119,56.54c7.52-7.18,15.26-14.49,23.2-21.78V22.41c-11.19,10.27-22.19,20.85-33,31.39C83.44,78.91,73.77,117.89,64.41,155.59Z"/><path class="cls-2" d="M106.66,714.8l-6.45-6.5C60.64,668.48,37.69,612.56,15.5,558.47l-2.21-5.38c-14.2-34.6-9.55-71.78-4.62-111.16,2.49-19.94,5.07-40.56,5.13-61.24q0-11.32,0-22.26c-.2-51.28-.42-95.69,18.8-141.59,8.19-19.61,13.61-41.84,18.85-63.35,9.44-38.76,19.21-78.84,45.55-105,13-12.89,28.32-28.14,45.27-43.47V0C125.88,14.69,109.9,30.28,94.29,45.78c-27.1,26.93-37,67.54-46.56,106.81C42.53,174,37.14,196,29.06,215.37,9.54,262,9.74,306.73,10,358.44q0,10.9,0,22.24C10,401.13,7.38,421.63,4.9,441.46S0,480.63,0,499.39c0,18.93,2.46,37.31,9.78,55.14l2.2,5.38C34.32,614.34,57.42,670.62,97.52,711l6.45,6.5c12.25,12.36,25,25.22,38.27,37.75V750C129.94,738.29,118.08,726.33,106.66,714.8Z"/><path class="cls-2" d="M110.29,702.37,105,696.92c-33.57-34.44-52-82.24-69.83-128.46-3.1-8.05-6.19-16.06-9.35-24C11.7,509.09,15.53,471,19.58,430.57c1.79-17.81,3.63-36.25,3.86-54.61l.12-9.18c.62-54.06,1.17-100.76,21.93-149,8.23-19.16,13.66-41,18.92-62.21,9.36-37.7,19-76.68,44.83-101.79,10.81-10.54,21.81-21.12,33-31.39v-5c-12.08,11-23.94,22.41-35.58,33.75C80.13,77,70.32,116.5,60.83,154.7c-5.22,21-10.61,42.77-18.73,61.64-21,48.9-21.59,95.94-22.23,150.4l-.11,9.17c-.23,18.21-2.07,36.56-3.85,54.3-1.9,18.93-3.75,37.38-3.75,55.32,0,20.78,2.47,40.89,10.22,60.33,3.15,7.89,6.24,15.88,9.33,23.92,18,46.57,36.53,94.73,70.64,129.72l5.29,5.44c11.11,11.43,22.64,23.29,34.6,34.91V734.7C131.22,723.91,120.57,713,110.29,702.37Z"/><path class="cls-2" d="M113.83,689.82l-4.06-4.26c-29.5-30.9-44.33-73.32-58.68-114.35-4.07-11.65-8.29-23.69-12.77-35.3-14.19-36.84-11.16-76.63-7.93-118.74,1.15-15,2.34-30.55,2.69-45.95C34.47,310.5,37,267.08,58.41,218.77c8.26-18.69,13.71-40.22,19-61,9.28-36.65,18.87-74.55,44.12-98.62,6.74-6.43,13.65-13,20.73-19.51V34.76c-7.94,7.29-15.68,14.6-23.2,21.78-26,24.77-35.71,63.18-45.11,100.32-5.23,20.68-10.64,42-18.78,60.46C33.47,266.24,30.92,310,29.51,371.15c-.35,15.29-1.53,30.77-2.68,45.75-1.38,18-2.72,35.53-2.72,52.65,0,23.38,2.51,45.94,10.88,67.64,4.47,11.55,8.67,23.57,12.73,35.2C62.19,613.78,77.15,656.57,107.19,688l4,4.27c9.73,10.21,20.09,21.09,31,32v-5.06C132.28,709.2,122.79,699.23,113.83,689.82Z"/><path class="cls-2" d="M117.34,677.19l-2.8-3C88.12,645.9,76.83,609.07,64.88,570.08c-4.34-14.13-8.82-28.75-14.06-42.77-14.69-39.47-12.28-82.25-9.72-127.55.61-10.9,1.25-22.16,1.61-33.25,2-57.56,7.27-100,28.62-146.77,8.3-18.23,13.76-39.39,19-59.85,9.2-35.61,18.7-72.42,43.4-95.45q4.18-3.91,8.47-7.87v-4.7c-3.66,3.36-7.27,6.72-10.82,10C106,85.63,96.34,122.94,87,159c-5.25,20.32-10.67,41.33-18.84,59.28-21.6,47.27-27,90.1-28.94,148.09-.36,11.05-1,22.3-1.6,33.17-.93,16.54-1.88,33.31-1.88,49.93,0,27.24,2.54,54.1,11.82,79,5.2,13.92,9.66,28.47,14,42.56C73.11,608.75,85.05,647.68,112,676.55l2.79,3c8.66,9.28,17.83,19.12,27.44,29v-5C133.55,694.58,125.23,685.66,117.34,677.19Z"/><path class="cls-2" d="M120.71,664.34l-1.39-1.53c-24-26.27-32.76-60.27-42-96.27-4.08-15.83-8.3-32.18-13.93-47.82-16.13-45-13.77-96.39-11.49-146.07l.5-10.88C55,303.34,64,263.79,84.26,220.69c8.33-17.74,13.81-38.52,19.1-58.63,8.61-32.68,17.5-66.4,38.88-88.58V68.76c-23.74,22.74-33.08,58.16-42.11,92.45-5.26,20-10.69,40.59-18.89,58.06C60.73,262.79,51.69,302.71,49,361.62l-.49,10.88c-.81,17.68-1.63,35.59-1.63,53.36,0,32.47,2.74,64.5,13.32,94C65.77,535.34,70,551.63,74,567.37c9.39,36.42,18.27,70.81,42.81,97.7l1.39,1.51c7.6,8.37,15.62,17.18,24,26.08v-4.89C134.75,679.77,127.56,671.87,120.71,664.34Z"/><path class="cls-2" d="M124.09,651.45c-21.94-24.64-28.45-56.38-35.35-90-3.49-17-7.11-34.6-12.89-51.33C58.85,460.66,59.33,405,62,357c3-51.48,12.84-89.44,35.2-135.38C105.55,204.4,111,184,116.35,164.23c6.62-24.6,13.41-49.81,25.89-69.78v-5.9c-14.52,21-21.86,48.26-29,74.85-5.27,19.6-10.72,39.86-19,56.85-22.55,46.36-32.51,84.66-35.51,136.61-.81,14.34-1.41,29.39-1.41,44.75,0,36.32,3.37,74.44,15.44,109.57,5.73,16.54,9.31,34,12.78,50.92,7,34,13.59,66.21,36.11,91.48,6.55,7.39,13.42,15.12,20.56,23v-4.8C136,664.82,129.9,658,124.09,651.45Z"/><path class="cls-2" d="M128.88,640.07c-20.2-23.27-24.64-53.15-29.34-84.79-2.65-17.83-5.4-36.27-11.17-53.74-14.61-44.46-20.43-96-16.75-149.24,3.65-51.55,17.44-87.84,38.49-129.67,8.39-16.79,13.91-36.82,19.22-56.19,3.88-14.1,7.81-28.4,12.91-41.71v-8.31c-6.62,15.41-11.31,32.44-15.91,49.18-5.29,19.24-10.75,39.12-19,55.63C86.1,263.4,72.19,300,68.5,352.09c-.71,10.41-1.06,20.77-1.06,31,0,42.51,6.1,83.29,18,119.41,5.7,17.22,8.42,35.53,11,53.23,4.77,32.1,9.28,62.42,30.07,86.37,5,5.74,10.21,11.82,15.72,18.07v-4.72C137.58,650.15,133.12,645,128.88,640.07Z"/><path class="cls-2" d="M133.65,628.7c-18.64-22.09-21.15-50.39-23.8-80.36-1.63-18.4-3.32-37.44-9-55.39C84.52,440.6,77.73,390.37,81.26,347.58c4.11-48.58,19.9-82,41.77-124,8.39-16.2,13.9-35.72,19.21-54.63v-11q-1.43,4.95-2.8,9.89c-5.3,18.87-10.78,38.37-19.08,54.39-22,42.26-37.94,76-42.1,125.12-.61,7.42-.91,15.08-.91,22.92,0,37.73,7,80,20.66,123.6,5.56,17.65,7.23,36.51,8.85,54.77,2.69,30.44,5.25,59.2,24.49,82,3.42,4.07,7.06,8.41,10.89,12.92V638.9C139.25,635.36,136.37,632,133.65,628.7Z"/><path class="cls-2" d="M138.43,617.33c-17.25-21.06-17.93-48-18.64-76.52-.47-18.78-1-38.21-6.41-56.45-14.36-48.62-26.84-96-22.49-141.51,4.32-43.46,20.77-73.65,39.81-108.62l5.26-9.68A143.25,143.25,0,0,0,142.24,211v-8a156.31,156.31,0,0,1-8.83,20.17l-5.25,9.67C109,268.09,92.39,298.52,88,342.57c-.62,6.4-.91,12.84-.91,19.31,0,40,11.07,81.2,23.51,123.3,5.34,17.88,5.82,37.11,6.29,55.7.73,29,1.42,56.46,19.29,78.27q3,3.69,6.05,7.41V622Z"/><path class="cls-2" d="M129.45,532.81c.29-7,.58-14.07.58-21.15,0-12.16-.87-24.28-4.13-35.9-2.07-7.42-4.33-15.05-6.63-22.8-10.77-36.29-22.94-77.44-18.75-114.84s19.39-63,36.82-92.66q2.41-4.12,4.9-8.37v-5.54c-2.46,4.26-4.91,8.43-7.3,12.5-17.59,29.89-32.79,55.71-37.17,93.76a143.38,143.38,0,0,0-.88,16.11c0,33.36,10.4,68.39,19.72,99.83,2.29,7.74,4.55,15.35,6.61,22.76,5,18,4.24,37.38,3.45,56.19-1.16,27.75-2.27,54,14.35,75,.4.52.81,1,1.22,1.55V604.7C127.28,584.75,128.33,559.52,129.45,532.81Z"/><path class="cls-2" d="M138.88,524.46c1.2-10.69,2.41-21.58,2.41-32.32a97.54,97.54,0,0,0-2.89-25c-2.94-11.38-6.71-23-10.7-35.29-10.64-32.82-21.64-66.74-17.55-98.49,4.08-30.78,17.39-53.08,32.09-75.86v-4.91c-15.73,24.26-30.36,47.5-34.72,80.43a112.4,112.4,0,0,0-.91,14.46c0,28,9.41,57,18.55,85.19,4,12.26,7.74,23.84,10.67,35.14,4.7,17.91,2.52,37.45.4,56.32-2.74,24.37-5.32,47.48,6,66.67V585.1C134.07,567.48,136.42,546.48,138.88,524.46Z"/><path class="cls-2" d="M142.24,565.38v-30C140.83,545.9,140.35,556,142.24,565.38Z"/><path class="cls-2" d="M137.41,416.8c-10.69-29.52-21.77-60-17.62-88.14,3.26-21.6,11.93-38.36,22.45-54.22v-4.57c-11.63,17-21.42,34.86-25,58.42a87.4,87.4,0,0,0-.93,13c0,24.94,9.47,51.05,18.67,76.42,2.54,7,5,13.8,7.23,20.46v-7.85Q139.92,423.65,137.41,416.8Z"/><path class="cls-2" d="M129.42,323.93a99.86,99.86,0,0,1,12.82-34.34v-4.71c-7.09,11.27-12.65,23.61-15.22,38.64a71.31,71.31,0,0,0-1,11.79c0,20.26,7.76,41.52,16.17,62.42v-6.6C133.26,368.28,125.87,345.17,129.42,323.93Z"/><path class="cls-2" d="M139.06,319.19a80.57,80.57,0,0,1,3.18-11.73v-6.38a84,84,0,0,0-5.47,17.68,58.39,58.39,0,0,0-1,10.82c0,10.6,2.61,21.55,6.46,32.58v-7.5C138.6,342.45,136.89,330.49,139.06,319.19Z"/></g></g></svg>