<svg xmlns="http://www.w3.org/2000/svg" viewBox="0 0 135 536.38"><defs><style>.cls-1{fill:none;}.cls-2{fill:#ea3d25;}</style></defs><title>Asset 7orange-blob</title><g id="Layer_2" data-name="Layer 2"><g id="Layer_2-2" data-name="Layer 2"><path class="cls-1" d="M14.59,131.29c2.21,6.32,4.46,12.77,6.84,19.37,6.19,17.26,15.14,32.91,23.8,48.05,16,28,31.24,54.48,29.61,89.62-1.66,36.53-21.33,66.82-40.35,96.11C25.05,399,15.29,414,8,429.44c-2.75,5.86-5.4,11.63-8,17.3v17.94c3.53-7.54,7-15.27,10.6-23.2q2.81-6.21,5.7-12.61c7.75-17,18.69-33.21,29.26-48.93C65.06,351,85.21,321,86.42,285.2c1.13-34.57-15.32-61.56-32.78-89.91-9.92-16.13-20.18-32.79-27-51.16-2.89-7.74-5.61-15.31-8.27-22.7C12.34,104.7,6.65,88.9,0,73.82V91.58C5.12,104.27,9.75,117.47,14.59,131.29Z"/><path class="cls-1" d="M21.61,120.25c2.66,7.39,5.38,14.95,8.26,22.67,6.72,18.05,16.89,34.57,26.72,50.55C73,220.14,89.94,247.68,89.94,281.9q0,1.69-.06,3.42c-1.25,36.79-21.69,67.17-41.45,96.55-10.49,15.6-21.35,31.73-29,48.44q-2.91,6.39-5.7,12.59C9.11,453.18,4.62,463.12,0,472.76v16.5C8.64,472.7,16.44,455,24.94,435.8l2.68-6.07c8.05-18.16,20.05-35.41,31.66-52.11,20.28-29.14,41.24-59.28,42.07-95.38.79-35.48-17.29-63.05-36.44-92.25C53.81,173.06,42.34,155.57,35,136.48c-3.4-8.77-6.55-17.33-9.63-25.69C17.29,88.92,9.79,68.6,0,49.48v16C8.09,82.7,14.63,100.87,21.61,120.25Z"/><path class="cls-1" d="M7.59,142.57q2.64,7.76,5.4,15.81c5.64,16.39,13.38,31.11,20.86,45.34,14.35,27.27,28,53,25.95,87.62-2.1,36.48-21.1,66.84-39.48,96.19-7,11.15-14.16,22.64-20.32,34.33v16.88Q2.44,433.43,5,428c7.37-15.65,17.19-30.77,26.7-45.4,18.78-28.91,38.2-58.81,39.82-94.43C73,254,58.11,228,42.33,200.37c-8.73-15.26-17.77-31-24-48.58-2.37-6.6-4.63-13.07-6.85-19.4C7.6,121.46,3.91,110.93,0,100.73v19.78C2.55,127.69,5,135,7.59,142.57Z"/><path class="cls-1" d="M14.7,300.37C12.77,319.83,7.25,337.71,0,354.66v19.57c13.06-23.73,24.34-48.71,26.74-77.12h0c2.75-33.27-7.15-56.63-18.62-83.63C5.41,207.11,2.65,200.61,0,193.81v23.48C9.75,243.65,17.94,266.79,14.7,300.37Z"/><path class="cls-1" d="M.67,154.3c1.28,3.88,2.56,7.81,3.89,11.81,5,15.34,11.55,29,17.85,42.22C35.13,235,47,260.18,44.78,294.35h0c-2.61,36.76-21.12,67.45-39,97.12-1.91,3.17-3.84,6.37-5.76,9.59v14c5.52-10,11.61-19.72,17.58-29.25,18.16-29,37-59,39-94.65,1.92-33.71-11.46-59.07-25.6-85.93-7.54-14.35-15.34-29.18-21-45.8q-2.79-8.07-5.4-15.82c-1.53-4.5-3-8.93-4.54-13.3v21.93C.22,152.93.45,153.61.67,154.3Z"/><path class="cls-1" d="M28.7,109.56c3.07,8.34,6.22,16.89,9.6,25.64,7.23,18.73,18.6,36.07,29.59,52.83,18.23,27.79,37.06,56.5,37.06,92,0,.74,0,1.49,0,2.24h0c-.86,37.19-22.13,67.77-42.7,97.34-11.52,16.55-23.43,33.67-31.34,51.52l-2.67,6.05C18.65,458.88,10,478.53,0,496.89V511c14.87-24.41,26.14-50.61,38.93-80.37,8.3-19.28,21.35-37.45,34-55,21.1-29.38,42.91-59.77,43.37-96.3,0-.39,0-.78,0-1.17,0-35.68-20.4-65.08-40.12-93.52-12.27-17.68-25-36-32.83-55.74-3.9-9.76-7.49-19.29-11-28.58-9.94-26.4-19-50.56-32.33-73V41.83C11.48,62.85,19.74,85.25,28.7,109.56Z"/><path class="cls-1" d="M10.89,212.32c11.14,26.22,21.71,50.93,18.85,85h0C27.12,328.26,14.31,355,0,380.41V395l3.08-5.13c17.72-29.36,36-59.71,38.58-95.74,2.28-33.32-9.54-58.19-22.07-84.46-6.33-13.3-12.89-27.06-18-42.59Q.8,164.64,0,162.24v23C3.46,194.8,7.21,203.67,10.89,212.32Z"/><path class="cls-1" d="M0,300.16v47.09a174.22,174.22,0,0,0,11.83-47.17C14.68,270.35,8.35,248.8,0,225.7v42.68A157.35,157.35,0,0,1,0,300.16Z"/><path class="cls-1" d="M35.79,99c3.48,9.27,7.07,18.78,11,28.52,7.73,19.38,20.29,37.49,32.44,55C99.45,211.7,120.33,242.12,120,279.3c-.48,37.7-22.65,68.56-44.06,98.41-12.52,17.42-25.44,35.43-33.58,54.35C29.05,462.92,16.87,491.21,0,517.76v12.1c20.25-28.72,34.05-59.69,50.24-98.39,8.51-20.33,22.58-39.37,36.19-57.78,21.95-29.68,44.65-60.38,44.77-97.42V276c0-36.88-22.28-67.42-43.83-97-13.43-18.41-27.32-37.45-35.7-57.86-4.39-10.66-8.4-21.11-12.28-31.21C27.68,59.49,17.1,32,0,6.67V20.14C15.19,44.31,25,70.32,35.79,99Z"/><path class="cls-2" d="M90.43,176.81c-13.29-18.23-27.05-37.08-35.25-57.07-4.37-10.63-8.37-21-12.24-31.13C30.43,56.06,19.21,26.87,0,0V6.67C17.1,32,27.68,59.49,39.39,90c3.88,10.1,7.89,20.55,12.28,31.21,8.38,20.41,22.27,39.45,35.7,57.86,21.55,29.55,43.83,60.09,43.83,97v.26c-.12,37-22.82,67.74-44.77,97.42-13.61,18.41-27.68,37.45-36.19,57.78-16.19,38.7-30,69.67-50.24,98.39v6.52c22.17-30.21,36.64-62.55,53.75-103.44C62.07,413,76,394.18,89.49,376c22.31-30.18,45.38-61.39,45.5-99.66,0-.1,0-.2,0-.28C135,237.89,112.34,206.84,90.43,176.81Z"/><path class="cls-2" d="M75.9,377.71C97.31,347.86,119.48,317,120,279.3c.37-37.18-20.51-67.6-40.78-96.83C67,165,54.47,146.85,46.74,127.47c-3.88-9.74-7.47-19.25-11-28.52C25,70.32,15.19,44.31,0,20.14v7.08c13.29,22.47,22.39,46.63,32.33,73,3.51,9.29,7.1,18.82,11,28.58,7.87,19.77,20.56,38.06,32.83,55.74,19.72,28.44,40.12,57.84,40.12,93.52,0,.39,0,.78,0,1.17-.46,36.53-22.27,66.92-43.37,96.3-12.62,17.59-25.67,35.76-34,55C26.14,460.36,14.87,486.56,0,511v6.79c16.87-26.55,29.05-54.84,42.32-85.7C50.46,413.14,63.38,395.13,75.9,377.71Z"/><path class="cls-2" d="M30.88,431.18c7.91-17.85,19.82-35,31.34-51.52,20.57-29.57,41.84-60.15,42.7-97.34h0c0-.75,0-1.5,0-2.24,0-35.54-18.83-64.25-37.06-92-11-16.76-22.36-34.1-29.59-52.83-3.38-8.75-6.53-17.3-9.6-25.64C19.74,85.25,11.48,62.85,0,41.83v7.65C9.79,68.6,17.29,88.92,25.35,110.79c3.08,8.36,6.23,16.92,9.63,25.69,7.36,19.09,18.83,36.58,29.93,53.51,19.15,29.2,37.23,56.77,36.44,92.25-.83,36.1-21.79,66.24-42.07,95.38-11.61,16.7-23.61,33.95-31.66,52.11l-2.68,6.07C16.44,455,8.64,472.7,0,489.26v7.63c10-18.36,18.65-38,28.21-59.66Z"/><path class="cls-2" d="M19.45,430.31c7.63-16.71,18.49-32.84,29-48.44,19.76-29.38,40.2-59.76,41.45-96.55q.06-1.72.06-3.42c0-34.22-16.94-61.76-33.35-88.43-9.83-16-20-32.5-26.72-50.55-2.88-7.72-5.6-15.28-8.26-22.67C14.63,100.87,8.09,82.7,0,65.46v8.36C6.65,88.9,12.34,104.7,18.36,121.43c2.66,7.39,5.38,15,8.27,22.7,6.83,18.37,17.09,35,27,51.16,17.46,28.35,33.91,55.34,32.78,89.91C85.21,321,65.06,351,45.56,379.94c-10.57,15.72-21.51,32-29.26,48.93q-2.91,6.4-5.7,12.61C7,449.41,3.53,457.14,0,464.68v8.08c4.62-9.64,9.11-19.58,13.75-29.86Q16.54,436.69,19.45,430.31Z"/><path class="cls-2" d="M34.49,384.44c19-29.29,38.69-59.58,40.35-96.11,1.63-35.14-13.58-61.6-29.61-89.62-8.66-15.14-17.61-30.79-23.8-48.05-2.38-6.6-4.63-13-6.84-19.37C9.75,117.47,5.12,104.27,0,91.58v9.15c3.91,10.2,7.6,20.73,11.43,31.66,2.22,6.33,4.48,12.8,6.85,19.4,6.28,17.54,15.32,33.32,24,48.58C58.11,228,73,254,71.51,288.18c-1.62,35.62-21,65.52-39.82,94.43C22.18,397.24,12.36,412.36,5,428q-2.55,5.43-5,10.73v8c2.61-5.67,5.26-11.44,8-17.3C15.29,414,25.05,399,34.49,384.44Z"/><path class="cls-2" d="M59.8,291.34c2-34.58-11.6-60.35-25.95-87.62C26.37,189.49,18.63,174.77,13,158.38q-2.78-8.06-5.4-15.81C5,135,2.55,127.69,0,120.51v9.8c1.51,4.37,3,8.8,4.54,13.3q2.63,7.75,5.4,15.82c5.71,16.62,13.51,31.45,21,45.8,14.14,26.86,27.52,52.22,25.6,85.93-2.06,35.65-20.85,65.65-39,94.65-6,9.53-12.06,19.29-17.58,29.25v6.8c6.16-11.69,13.34-23.18,20.32-34.33C38.7,358.18,57.7,327.82,59.8,291.34Z"/><path class="cls-2" d="M44.78,294.36h0c2.25-34.17-9.65-59.37-22.37-86-6.3-13.21-12.81-26.88-17.85-42.22-1.33-4-2.61-7.93-3.89-11.81-.22-.69-.45-1.37-.67-2.06v10q.8,2.4,1.59,4.84c5.11,15.53,11.67,29.29,18,42.59,12.53,26.27,24.35,51.14,22.07,84.46-2.54,36-20.86,66.38-38.58,95.74L0,395v6.07c1.92-3.22,3.85-6.42,5.76-9.59C23.66,361.81,42.17,331.12,44.78,294.36Z"/><path class="cls-2" d="M29.74,297.36c2.86-34.11-7.71-58.82-18.85-85-3.68-8.65-7.43-17.52-10.89-27v8.52c2.65,6.8,5.41,13.3,8.12,19.68,11.47,27,21.37,50.36,18.62,83.63h0C24.34,325.52,13.06,350.5,0,374.23v6.18c14.31-25.42,27.12-52.15,29.74-83Z"/><path class="cls-2" d="M0,217.29v8.41c8.35,23.1,14.68,44.65,11.83,74.38A174.22,174.22,0,0,1,0,347.25v7.41c7.25-17,12.77-34.83,14.7-54.29C17.94,266.79,9.75,243.65,0,217.29Z"/></g></g></svg>